<?xml version="1.0" standalone="no"?>
<!DOCTYPE svg PUBLIC "-//W3C//DTD SVG 20010904//EN"
 "http://www.w3.org/TR/2001/REC-SVG-20010904/DTD/svg10.dtd">
<svg version="1.0" xmlns="http://www.w3.org/2000/svg"
 width="1254.000000pt" height="1254.000000pt" viewBox="0 0 1254.000000 1254.000000"
 preserveAspectRatio="xMidYMid meet">

<g transform="translate(0.000000,1254.000000) scale(0.100000,-0.100000)"
fill="#000000" stroke="none">
<path d="M6248 11153 c7 -3 16 -2 19 1 4 3 -2 6 -13 5 -11 0 -14 -3 -6 -6z"/>
<path d="M5985 11106 c-362 -92 -735 -262 -1016 -463 -261 -185 -488 -410
-640 -634 -63 -93 -38 -69 35 34 141 199 321 378 551 550 324 241 694 409
1150 523 72 17 121 32 110 32 -11 1 -96 -19 -190 -42z"/>
<path d="M6375 11124 c28 -7 57 -13 65 -13 8 0 -7 7 -35 15 -27 7 -57 13 -65
13 -8 0 8 -7 35 -15z"/>
<path d="M6468 11103 c7 -3 16 -2 19 1 4 3 -2 6 -13 5 -11 0 -14 -3 -6 -6z"/>
<path d="M6500 11098 c8 -8 243 -79 247 -74 2 2 -40 18 -94 35 -105 33 -161
47 -153 39z"/>
<path d="M6760 11017 c3 -3 59 -26 125 -52 159 -63 318 -142 473 -237 17 -11
32 -17 32 -15 0 10 -147 96 -255 150 -139 70 -395 175 -375 154z"/>
<path d="M6425 10970 c10 -11 20 -20 23 -20 3 0 -3 9 -13 20 -10 11 -20 20
-23 20 -3 0 3 -9 13 -20z"/>
<path d="M6020 10949 c0 -5 5 -7 10 -4 6 3 10 8 10 11 0 2 -4 4 -10 4 -5 0
-10 -5 -10 -11z"/>
<path d="M6030 10887 c0 -3 12 -12 26 -22 15 -9 23 -12 20 -6 -7 11 -46 35
-46 28z"/>
<path d="M5821 10800 c0 -8 15 -30 34 -49 21 -21 31 -39 28 -49 -4 -10 -2 -13
5 -8 19 11 14 24 -22 61 -19 18 -36 39 -39 47 -4 10 -6 9 -6 -2z"/>
<path d="M6087 10769 c4 -13 8 -18 11 -10 2 7 -1 18 -6 23 -8 8 -9 4 -5 -13z"/>
<path d="M6682 10774 c10 -10 20 -16 22 -13 3 3 -5 11 -17 18 -21 13 -21 12
-5 -5z"/>
<path d="M5340 10760 c-9 -6 -10 -10 -3 -10 6 0 15 5 18 10 8 12 4 12 -15 0z"/>
<path d="M6756 10734 c-5 -14 -4 -15 9 -4 17 14 19 20 6 20 -5 0 -12 -7 -15
-16z"/>
<path d="M5248 10714 c-39 -21 -35 -28 5 -8 37 19 44 24 31 24 -5 -1 -21 -8
-36 -16z"/>
<path d="M5632 10690 c0 -14 2 -19 5 -12 2 6 2 18 0 25 -3 6 -5 1 -5 -13z"/>
<path d="M4955 10674 l-30 -26 33 22 c17 12 32 23 32 26 0 7 -4 5 -35 -22z"/>
<path d="M7435 10683 c6 -6 66 -53 135 -104 236 -176 487 -452 641 -704 55
-90 80 -118 33 -37 -155 265 -392 533 -649 733 -104 81 -182 136 -160 112z"/>
<path d="M5289 10663 c-13 -16 -12 -17 4 -4 9 7 17 15 17 17 0 8 -8 3 -21 -13z"/>
<path d="M5880 10655 c0 -8 7 -15 16 -15 14 0 14 3 4 15 -7 8 -14 15 -16 15
-2 0 -4 -7 -4 -15z"/>
<path d="M5468 10653 c7 -3 16 -2 19 1 4 3 -2 6 -13 5 -11 0 -14 -3 -6 -6z"/>
<path d="M4899 10633 c-13 -16 -12 -17 4 -4 9 7 17 15 17 17 0 8 -8 3 -21 -13z"/>
<path d="M5344 10638 c-5 -7 -3 -8 6 -3 8 5 19 1 28 -11 14 -18 14 -18 8 -1
-3 10 -6 21 -6 23 0 9 -29 3 -36 -8z"/>
<path d="M5501 10646 c2 -2 15 -9 29 -15 24 -11 24 -11 6 3 -16 13 -49 24 -35
12z"/>
<path d="M5090 10615 c-19 -14 -30 -25 -25 -25 6 0 24 11 40 25 39 31 30 31
-15 0z"/>
<path d="M4804 10563 c-461 -377 -753 -833 -885 -1383 -43 -176 -59 -310 -59
-497 0 -269 41 -497 143 -785 56 -159 54 -170 -47 -266 -39 -37 -62 -60 -51
-52 51 36 136 127 146 157 9 29 3 54 -50 215 -33 101 -63 201 -66 223 -4 22
-14 65 -22 95 -21 80 -43 298 -42 425 0 263 63 567 177 852 34 83 139 289 193
375 118 191 341 445 529 601 104 87 116 97 109 97 -3 0 -36 -26 -75 -57z"/>
<path d="M5325 10609 c-4 -6 -5 -12 -2 -15 2 -3 7 2 10 11 7 17 1 20 -8 4z"/>
<path d="M6231 10561 c-8 -5 -9 -11 -3 -15 5 -3 12 1 16 9 6 17 6 18 -13 6z"/>
<path d="M5108 10513 c5 -21 7 -23 10 -9 2 10 0 22 -6 28 -6 6 -7 0 -4 -19z"/>
<path d="M4900 10480 c-19 -16 -30 -30 -24 -30 5 0 23 14 39 30 36 38 30 38
-15 0z"/>
<path d="M5186 10485 c15 -14 29 -25 32 -25 3 0 -5 11 -18 25 -13 14 -27 25
-32 25 -5 0 3 -11 18 -25z"/>
<path d="M5010 10480 c6 -11 13 -20 16 -20 2 0 0 9 -6 20 -6 11 -13 20 -16 20
-2 0 0 -9 6 -20z"/>
<path d="M5547 10473 c-18 -24 -19 -24 -40 -6 l-22 18 19 -23 20 -23 25 25
c14 14 23 27 20 30 -2 2 -12 -7 -22 -21z"/>
<path d="M5620 10479 c0 -5 5 -7 10 -4 6 3 10 8 10 11 0 2 -4 4 -10 4 -5 0
-10 -5 -10 -11z"/>
<path d="M5275 10450 c10 -11 20 -20 22 -20 7 0 -2 25 -12 32 -21 16 -27 7
-10 -12z"/>
<path d="M5037 10429 c4 -13 8 -18 11 -10 2 7 -1 18 -6 23 -8 8 -9 4 -5 -13z"/>
<path d="M5313 10422 c-7 -4 -9 -13 -4 -21 6 -9 10 -7 14 8 3 12 4 21 4 21 -1
0 -7 -4 -14 -8z"/>
<path d="M4920 10408 c0 -9 5 -20 11 -23 17 -11 18 -2 3 19 -12 17 -14 17 -14
4z"/>
<path d="M5388 10398 c5 -5 16 -8 23 -6 8 3 3 7 -10 11 -17 4 -21 3 -13 -5z"/>
<path d="M6580 10406 c0 -2 7 -7 16 -10 8 -3 12 -2 9 4 -6 10 -25 14 -25 6z"/>
<path d="M4999 10383 c-13 -16 -12 -17 4 -4 9 7 17 15 17 17 0 8 -8 3 -21 -13z"/>
<path d="M5522 10376 c7 -8 15 -12 17 -11 5 6 -10 25 -20 25 -5 0 -4 -6 3 -14z"/>
<path d="M6190 10383 c-8 -3 -84 -30 -169 -60 -568 -200 -971 -524 -1199 -962
-57 -109 -143 -339 -141 -378 0 -10 13 25 29 78 180 594 645 1022 1379 1270
l143 49 142 -46 c779 -254 1284 -761 1403 -1407 14 -77 14 -97 3 -136 -24 -85
-39 -176 -40 -232 0 -31 -5 -71 -12 -90 -14 -43 -69 -129 -122 -194 -22 -27
-33 -44 -23 -36 21 16 23 -1 2 -19 -8 -7 -15 -9 -15 -4 0 4 -20 -11 -44 -35
-25 -24 -44 -47 -43 -51 2 -8 -94 -100 -106 -100 -4 0 8 14 27 30 57 50 63 84
52 275 -10 157 7 246 69 370 25 50 38 81 29 70 -27 -34 -82 -149 -98 -206 -24
-86 -29 -168 -16 -268 17 -131 9 -173 -46 -231 -24 -26 -41 -49 -38 -52 3 -3
-8 -15 -24 -27 -33 -23 -47 -27 -36 -9 4 7 3 8 -5 4 -6 -4 -9 -11 -6 -16 3 -5
-11 -20 -32 -34 -40 -27 -59 -33 -47 -15 4 8 0 8 -15 0 -11 -7 -20 -17 -18
-23 1 -6 -4 -13 -12 -16 -9 -3 -11 0 -6 8 6 9 3 9 -14 0 -12 -6 -19 -15 -16
-20 8 -12 -94 -58 -269 -121 -78 -28 -163 -59 -190 -70 -26 -10 -53 -16 -59
-12 -6 4 -7 1 -3 -6 6 -8 2 -11 -10 -9 -12 2 -18 -2 -16 -11 2 -8 -3 -11 -11
-8 -9 3 -31 -11 -53 -34 -45 -47 -27 -52 24 -8 53 47 157 92 222 97 49 3 67
-2 158 -43 151 -68 261 -77 388 -31 53 20 35 19 -59 -1 -108 -23 -205 -9 -324
47 -47 22 -97 40 -111 40 -37 0 -18 13 58 40 36 12 106 40 156 61 101 42 114
43 264 4 45 -12 90 -16 152 -13 48 2 88 2 88 -1 0 -2 -11 -24 -25 -48 -29 -48
-29 -48 48 -57 104 -12 203 -85 253 -184 l29 -57 5 -700 5 -700 3 692 c2 675
1 694 -18 747 -24 64 -85 137 -144 171 -24 14 -75 33 -114 43 l-72 18 30 47
c16 26 35 47 41 47 11 0 159 99 159 107 0 5 -5 2 -76 -43 -65 -42 -148 -65
-228 -66 -66 0 -89 3 -194 28 -35 9 -70 13 -77 10 -7 -2 -16 -2 -19 1 -3 3 16
17 42 31 26 13 82 50 125 81 126 91 141 97 264 104 202 13 292 49 413 168 45
44 80 83 77 85 -2 2 -38 -29 -80 -70 -110 -109 -214 -155 -366 -162 -42 -2
-96 -7 -121 -10 l-45 -7 70 69 c39 38 87 89 106 114 65 82 94 124 82 116 -18
-10 -16 6 3 30 13 16 15 16 10 2 -9 -29 2 -20 30 23 14 22 58 78 97 124 40 46
80 99 90 117 17 32 17 32 0 8 -10 -13 -51 -63 -92 -110 -40 -47 -82 -100 -93
-118 -27 -43 -33 -36 -12 14 9 21 20 84 25 140 16 179 78 334 182 453 28 33
24 30 -14 -9 -30 -31 -70 -86 -89 -123 -18 -36 -35 -65 -36 -64 -1 1 -9 44
-18 95 -36 205 -134 437 -265 622 -82 116 -270 306 -391 397 -195 144 -354
231 -610 330 -222 87 -284 103 -330 86z m1491 -2040 c-6 -10 -26 -36 -46 -58
-40 -44 -28 -21 20 38 33 40 41 47 26 20z m-111 -136 c0 -2 -19 -21 -42 -42
l-43 -40 40 43 c36 39 45 47 45 39z"/>
<path d="M5322 10364 c-14 -16 -5 -18 17 -5 7 5 9 11 5 14 -5 3 -15 -1 -22 -9z"/>
<path d="M4760 10360 c0 -5 5 -10 11 -10 5 0 7 5 4 10 -3 6 -8 10 -11 10 -2 0
-4 -4 -4 -10z"/>
<path d="M5140 10340 c0 -5 5 -10 11 -10 5 0 7 5 4 10 -3 6 -8 10 -11 10 -2 0
-4 -4 -4 -10z"/>
<path d="M5561 10324 c13 -17 26 -30 28 -27 3 2 -8 16 -24 31 l-28 27 24 -31z"/>
<path d="M5710 10335 c-16 -8 -27 -10 -31 -3 -3 5 -9 0 -12 -11 l-5 -20 42 21
c46 23 53 28 40 28 -5 -1 -20 -7 -34 -15z"/>
<path d="M4984 10316 c11 -9 24 -16 30 -16 12 0 7 5 -24 19 -24 11 -24 11 -6
-3z"/>
<path d="M5377 10290 c10 -11 19 -20 21 -20 1 0 -2 9 -8 20 -6 11 -15 20 -20
20 -6 0 -2 -9 7 -20z"/>
<path d="M4925 10290 c3 -5 8 -10 11 -10 2 0 4 5 4 10 0 6 -5 10 -11 10 -5 0
-7 -4 -4 -10z"/>
<path d="M5048 10293 c14 -3 22 -12 23 -26 0 -21 1 -21 9 -2 14 32 12 35 -22
34 -24 -1 -27 -3 -10 -6z"/>
<path d="M5260 10286 c0 -2 8 -10 18 -17 15 -13 16 -12 3 4 -13 16 -21 21 -21
13z"/>
<path d="M4645 10250 c-16 -16 -25 -30 -19 -29 8 0 60 59 52 59 -3 0 -17 -13
-33 -30z"/>
<path d="M5200 10270 c0 -5 5 -10 11 -10 5 0 7 5 4 10 -3 6 -8 10 -11 10 -2 0
-4 -4 -4 -10z"/>
<path d="M5561 10266 c-6 -8 -25 -19 -42 -26 -16 -7 -28 -15 -25 -17 6 -7 60
23 75 41 8 9 11 16 8 16 -2 0 -10 -6 -16 -14z"/>
<path d="M4780 10263 c0 -6 8 -17 18 -24 16 -13 16 -13 2 6 -8 11 -16 22 -17
24 -2 2 -3 0 -3 -6z"/>
<path d="M4869 10243 c-13 -16 -12 -17 4 -4 9 7 17 15 17 17 0 8 -8 3 -21 -13z"/>
<path d="M5135 10250 c-3 -6 1 -7 9 -4 18 7 21 14 7 14 -6 0 -13 -4 -16 -10z"/>
<path d="M5257 10203 c10 -18 20 -28 22 -22 2 6 -6 21 -19 33 l-21 21 18 -32z"/>
<path d="M4920 10195 c7 -9 15 -13 17 -11 7 7 -7 26 -19 26 -6 0 -6 -6 2 -15z"/>
<path d="M4691 10184 c0 -11 3 -14 6 -6 3 7 2 16 -1 19 -3 4 -6 -2 -5 -13z"/>
<path d="M5166 10165 c4 -8 8 -15 10 -15 2 0 4 7 4 15 0 8 -4 15 -10 15 -5 0
-7 -7 -4 -15z"/>
<path d="M5399 10163 c-13 -15 -12 -15 9 -4 23 12 28 21 13 21 -5 0 -15 -7
-22 -17z"/>
<path d="M4640 10158 c0 -24 14 -30 36 -13 18 14 18 15 0 9 -11 -4 -22 -1 -27
7 -7 11 -9 11 -9 -3z"/>
<path d="M5126 10152 c-2 -4 -1 -14 5 -22 7 -12 9 -10 9 8 0 23 -5 28 -14 14z"/>
<path d="M4960 10115 c-7 -9 -11 -18 -8 -20 3 -3 11 1 18 10 7 9 11 18 8 20
-3 3 -11 -1 -18 -10z"/>
<path d="M5299 10093 c-13 -16 -12 -17 4 -4 9 7 17 15 17 17 0 8 -8 3 -21 -13z"/>
<path d="M7154 10091 c21 -23 26 -26 26 -11 0 5 -10 15 -22 21 -23 12 -23 12
-4 -10z"/>
<path d="M4905 10070 c-3 -6 1 -7 9 -4 18 7 21 14 7 14 -6 0 -13 -4 -16 -10z"/>
<path d="M5030 10076 c0 -2 8 -10 18 -17 15 -13 16 -12 3 4 -13 16 -21 21 -21
13z"/>
<path d="M4609 10022 c-3 -20 -2 -29 4 -23 5 5 7 19 5 32 -3 20 -5 19 -9 -9z"/>
<path d="M5076 10037 c3 -10 9 -15 12 -12 3 3 0 11 -7 18 -10 9 -11 8 -5 -6z"/>
<path d="M5195 10014 l-40 -36 43 32 c36 27 49 40 40 40 -2 0 -21 -16 -43 -36z"/>
<path d="M5092 9990 c0 -14 2 -19 5 -12 2 6 2 18 0 25 -3 6 -5 1 -5 -13z"/>
<path d="M4534 9950 c0 -13 4 -16 10 -10 7 7 7 13 0 20 -6 6 -10 3 -10 -10z"/>
<path d="M4995 9960 c3 -5 11 -10 16 -10 6 0 7 5 4 10 -3 6 -11 10 -16 10 -6
0 -7 -4 -4 -10z"/>
<path d="M4610 9935 c-7 -9 -11 -17 -9 -20 3 -2 10 5 17 15 14 24 10 26 -8 5z"/>
<path d="M4270 9920 c-6 -11 -8 -20 -6 -20 3 0 10 9 16 20 6 11 8 20 6 20 -3
0 -10 -9 -16 -20z"/>
<path d="M7851 9924 c0 -11 3 -14 6 -6 3 7 2 16 -1 19 -3 4 -6 -2 -5 -13z"/>
<path d="M5059 9893 l-34 -38 38 34 c20 19 37 36 37 38 0 8 -8 0 -41 -34z"/>
<path d="M5204 9898 l-29 -33 33 29 c30 28 37 36 29 36 -2 0 -16 -15 -33 -32z"/>
<path d="M4240 9870 c-6 -11 -8 -20 -6 -20 3 0 10 9 16 20 6 11 8 20 6 20 -3
0 -10 -9 -16 -20z"/>
<path d="M4626 9852 c-3 -6 -1 -14 5 -17 14 -9 20 -2 10 14 -6 8 -11 9 -15 3z"/>
<path d="M4868 9821 c9 -16 18 -28 20 -27 5 6 -21 56 -29 56 -5 0 0 -13 9 -29z"/>
<path d="M4210 9820 c-6 -11 -8 -20 -6 -20 3 0 10 9 16 20 6 11 8 20 6 20 -3
0 -10 -9 -16 -20z"/>
<path d="M4570 9826 c0 -2 7 -9 15 -16 13 -11 14 -10 9 4 -5 14 -24 23 -24 12z"/>
<path d="M5040 9738 c-162 -185 -324 -465 -355 -613 -3 -16 7 4 23 45 92 238
190 396 378 608 26 28 44 52 41 52 -3 0 -42 -42 -87 -92z"/>
<path d="M7484 9798 c16 -21 30 -38 33 -38 8 0 -16 36 -38 55 -19 16 -18 13 5
-17z"/>
<path d="M4438 9793 c7 -3 16 -2 19 1 4 3 -2 6 -13 5 -11 0 -14 -3 -6 -6z"/>
<path d="M4785 9770 c10 -11 20 -20 23 -20 3 0 -3 9 -13 20 -10 11 -20 20 -23
20 -3 0 3 -9 13 -20z"/>
<path d="M4944 9768 l-19 -23 23 19 c12 11 22 21 22 23 0 8 -8 2 -26 -19z"/>
<path d="M4376 9767 c3 -10 9 -15 12 -12 3 3 0 11 -7 18 -10 9 -11 8 -5 -6z"/>
<path d="M8317 9685 c27 -55 55 -111 61 -125 l12 -25 -6 25 c-7 30 -92 201
-106 215 -6 6 12 -35 39 -90z"/>
<path d="M4260 9730 c-11 -22 -17 -40 -13 -40 5 0 16 18 25 40 21 52 14 52
-12 0z"/>
<path d="M4144 9699 c-14 -28 -24 -53 -22 -55 2 -2 16 21 31 51 15 30 25 55
22 55 -3 0 -16 -23 -31 -51z"/>
<path d="M4865 9740 c-3 -5 -1 -10 4 -10 6 0 11 5 11 10 0 6 -2 10 -4 10 -3 0
-8 -4 -11 -10z"/>
<path d="M4284 9718 l-19 -23 23 19 c12 11 22 21 22 23 0 8 -8 2 -26 -19z"/>
<path d="M4440 9720 c0 -11 4 -20 9 -20 6 0 9 9 8 20 -1 11 -5 20 -9 20 -4 0
-8 -9 -8 -20z"/>
<path d="M7985 9730 c3 -5 8 -10 11 -10 2 0 4 5 4 10 0 6 -5 10 -11 10 -5 0
-7 -4 -4 -10z"/>
<path d="M4828 9723 c7 -3 16 -2 19 1 4 3 -2 6 -13 5 -11 0 -14 -3 -6 -6z"/>
<path d="M4500 9696 c0 -2 8 -10 18 -17 15 -13 16 -12 3 4 -13 16 -21 21 -21
13z"/>
<path d="M4850 9650 c-12 -16 -19 -30 -16 -30 2 0 14 14 26 30 12 17 19 30 16
30 -2 0 -14 -13 -26 -30z"/>
<path d="M4329 9649 c-10 -10 -19 -27 -19 -36 0 -12 6 -8 19 14 18 29 22 31
45 20 19 -9 24 -17 20 -32 -4 -16 -3 -17 5 -5 17 24 13 35 -20 47 -26 10 -33
9 -50 -8z"/>
<path d="M4239 9598 c4 -28 6 -29 9 -9 2 13 0 27 -5 32 -6 6 -7 -3 -4 -23z"/>
<path d="M4615 9620 c-3 -5 -1 -10 4 -10 6 0 11 5 11 10 0 6 -2 10 -4 10 -3 0
-8 -4 -11 -10z"/>
<path d="M8133 9615 c-3 -9 -3 -18 -1 -21 3 -3 8 4 11 16 6 23 -1 27 -10 5z"/>
<path d="M4498 9613 c-10 -2 -18 -9 -18 -14 0 -6 8 -5 20 1 11 6 20 13 20 15
0 3 -1 4 -2 4 -2 -1 -11 -3 -20 -6z"/>
<path d="M4547 9593 c3 -7 9 -10 14 -7 14 8 11 21 -5 21 -8 0 -12 -6 -9 -14z"/>
<path d="M4300 9581 c0 -6 4 -13 10 -16 6 -3 7 1 4 9 -7 18 -14 21 -14 7z"/>
<path d="M7971 9574 c0 -11 3 -14 6 -6 3 7 2 16 -1 19 -3 4 -6 -2 -5 -13z"/>
<path d="M4388 9555 c-5 -25 -4 -25 10 -11 12 11 13 19 5 27 -7 7 -12 3 -15
-16z"/>
<path d="M4790 9565 c-7 -9 -11 -17 -9 -20 3 -2 10 5 17 15 14 24 10 26 -8 5z"/>
<path d="M7650 9576 c0 -2 8 -10 18 -17 15 -13 16 -12 3 4 -13 16 -21 21 -21
13z"/>
<path d="M4610 9545 c7 -9 15 -13 17 -11 7 7 -7 26 -19 26 -6 0 -6 -6 2 -15z"/>
<path d="M4282 9520 c7 -10 14 -18 15 -16 6 6 -9 36 -18 36 -5 0 -4 -9 3 -20z"/>
<path d="M4511 9531 c-1 -8 -9 -24 -18 -35 -16 -20 -16 -20 6 0 13 12 21 28
18 35 -4 11 -6 11 -6 0z"/>
<path d="M8396 9515 c38 -109 83 -228 83 -218 1 16 -58 183 -76 213 -9 15 -12
17 -7 5z"/>
<path d="M4357 9503 c3 -7 6 -13 8 -13 2 0 5 6 8 13 3 8 -1 14 -8 14 -7 0 -11
-6 -8 -14z"/>
<path d="M8307 9489 c4 -13 8 -18 11 -10 2 7 -1 18 -6 23 -8 8 -9 4 -5 -13z"/>
<path d="M4295 9480 c-3 -5 -1 -10 4 -10 6 0 11 5 11 10 0 6 -2 10 -4 10 -3 0
-8 -4 -11 -10z"/>
<path d="M4418 9463 c6 -2 18 -2 25 0 6 3 1 5 -13 5 -14 0 -19 -2 -12 -5z"/>
<path d="M4600 9443 c0 -4 5 -15 10 -23 8 -13 10 -13 10 2 0 9 -4 20 -10 23
-5 3 -10 3 -10 -2z"/>
<path d="M4695 9404 c-9 -14 -14 -28 -12 -31 3 -3 13 9 22 26 19 38 14 41 -10
5z"/>
<path d="M8790 9427 c0 -2 51 -41 113 -87 295 -221 648 -646 897 -1079 563
-979 738 -2178 484 -3303 -207 -919 -721 -1775 -1424 -2372 -121 -103 -167
-147 -95 -91 280 217 607 566 833 890 380 544 638 1169 746 1805 57 335 61
390 61 800 0 363 -2 397 -28 595 -15 116 -32 230 -38 255 -6 25 -15 68 -19 95
-5 28 -14 68 -20 90 -6 22 -15 59 -20 82 -17 77 -119 397 -168 528 -119 312
-267 601 -455 885 -145 220 -375 501 -530 646 -87 82 -337 276 -337 261z"/>
<path d="M4478 9413 c7 -3 16 -2 19 1 4 3 -2 6 -13 5 -11 0 -14 -3 -6 -6z"/>
<path d="M4523 9413 c9 -2 23 -2 30 0 6 3 -1 5 -18 5 -16 0 -22 -2 -12 -5z"/>
<path d="M4195 9400 c-3 -6 1 -7 9 -4 18 7 21 14 7 14 -6 0 -13 -4 -16 -10z"/>
<path d="M4303 9403 c9 -2 23 -2 30 0 6 3 -1 5 -18 5 -16 0 -22 -2 -12 -5z"/>
<path d="M4440 9395 c0 -8 2 -15 4 -15 2 0 6 7 10 15 3 8 1 15 -4 15 -6 0 -10
-7 -10 -15z"/>
<path d="M3484 9288 c-537 -404 -1011 -1115 -1273 -1906 -41 -125 -131 -470
-131 -500 1 -9 25 78 55 193 187 734 545 1402 1024 1906 100 106 237 228 376
334 102 77 111 85 103 85 -3 0 -72 -50 -154 -112z"/>
<path d="M4155 9380 c3 -5 8 -10 11 -10 2 0 4 5 4 10 0 6 -5 10 -11 10 -5 0
-7 -4 -4 -10z"/>
<path d="M4300 9354 c-12 -19 -21 -37 -18 -39 2 -2 14 14 26 36 28 49 22 52
-8 3z"/>
<path d="M4610 9365 c7 -8 10 -22 6 -30 -3 -8 -1 -15 4 -15 6 0 10 6 10 14 0
23 -11 46 -22 46 -6 0 -5 -6 2 -15z"/>
<path d="M4387 9349 c4 -13 8 -18 11 -10 2 7 -1 18 -6 23 -8 8 -9 4 -5 -13z"/>
<path d="M4087 9331 c-4 -17 -3 -21 5 -13 5 5 8 16 6 23 -3 8 -7 3 -11 -10z"/>
<path d="M4152 9300 c0 -14 2 -19 5 -12 2 6 2 18 0 25 -3 6 -5 1 -5 -13z"/>
<path d="M4402 9300 c0 -14 2 -19 5 -12 2 6 2 18 0 25 -3 6 -5 1 -5 -13z"/>
<path d="M4101 9294 c0 -11 3 -14 6 -6 3 7 2 16 -1 19 -3 4 -6 -2 -5 -13z"/>
<path d="M4170 9307 c0 -3 21 -17 46 -32 38 -22 45 -31 41 -51 -2 -13 0 -21 4
-18 5 3 9 15 9 27 0 16 -14 30 -50 50 -28 16 -50 26 -50 24z"/>
<path d="M8311 9294 c0 -11 3 -14 6 -6 3 7 2 16 -1 19 -3 4 -6 -2 -5 -13z"/>
<path d="M8481 9275 c0 -5 6 -30 13 -55 8 -25 15 -36 15 -25 -1 21 -27 98 -28
80z"/>
<path d="M4116 9240 c4 -19 10 -42 15 -50 11 -18 1 34 -13 65 -5 13 -6 9 -2
-15z"/>
<path d="M4627 9253 c-4 -3 -7 -13 -7 -22 1 -13 3 -13 11 2 11 19 8 33 -4 20z"/>
<path d="M7820 9253 c0 -4 5 -15 10 -23 8 -13 10 -13 10 2 0 9 -4 20 -10 23
-5 3 -10 3 -10 -2z"/>
<path d="M4500 9210 c-6 -11 -8 -20 -6 -20 3 0 10 9 16 20 6 11 8 20 6 20 -3
0 -10 -9 -16 -20z"/>
<path d="M4310 9206 c0 -9 5 -16 10 -16 6 0 10 4 10 9 0 6 -4 13 -10 16 -5 3
-10 -1 -10 -9z"/>
<path d="M3279 9157 c-35 -30 -71 -62 -79 -73 -8 -10 12 5 45 33 33 29 71 61
85 72 14 11 23 20 19 21 -3 0 -34 -24 -70 -53z"/>
<path d="M8511 9154 c0 -11 3 -14 6 -6 3 7 2 16 -1 19 -3 4 -6 -2 -5 -13z"/>
<path d="M8522 9110 c0 -14 2 -19 5 -12 2 6 2 18 0 25 -3 6 -5 1 -5 -13z"/>
<path d="M4090 9110 c-8 -5 -10 -10 -5 -10 6 0 17 5 25 10 8 5 11 10 5 10 -5
0 -17 -5 -25 -10z"/>
<path d="M4152 9098 c7 -15 15 -23 17 -17 2 6 -4 18 -13 27 -15 15 -15 15 -4
-10z"/>
<path d="M4264 9095 c-19 -21 -20 -26 -7 -36 9 -8 12 -22 7 -42 -4 -20 -3 -27
5 -23 14 9 14 49 0 63 -8 8 -6 18 6 37 22 33 17 33 -11 1z"/>
<path d="M4441 9094 c0 -11 3 -14 6 -6 3 7 2 16 -1 19 -3 4 -6 -2 -5 -13z"/>
<path d="M4650 9000 c-58 -248 -53 -459 17 -725 26 -99 72 -224 114 -307 40
-81 134 -238 142 -238 5 0 -5 24 -22 53 -46 77 -145 282 -176 362 -33 88 -82
283 -91 361 -17 147 0 396 37 538 6 21 8 40 6 43 -3 2 -15 -37 -27 -87z"/>
<path d="M8532 9060 c0 -14 2 -19 5 -12 2 6 2 18 0 25 -3 6 -5 1 -5 -13z"/>
<path d="M3049 8943 c-193 -197 -332 -374 -480 -608 -480 -760 -719 -1626
-696 -2525 17 -646 158 -1238 431 -1805 529 -1098 1441 -1900 2587 -2273 298
-97 637 -174 874 -197 100 -10 77 1 -30 14 -116 15 -353 63 -525 106 -181 45
-486 143 -515 164 -5 5 -35 16 -65 25 -123 40 -513 234 -621 309 -36 26 -68
45 -70 43 -2 -3 -29 13 -59 34 -30 21 -83 56 -117 76 -34 21 -60 41 -57 46 3
5 2 7 -3 6 -10 -3 -94 54 -113 78 -8 9 -31 27 -51 40 -46 29 -157 130 -359
327 -161 158 -293 305 -373 417 -25 36 -50 70 -54 75 -60 74 -210 300 -252
379 -17 33 -35 64 -40 70 -5 6 -35 61 -66 121 -32 61 -61 115 -65 120 -4 6
-20 42 -35 80 -15 39 -33 81 -40 95 -24 47 -75 170 -75 182 0 6 -8 30 -18 52
-30 67 -130 383 -157 496 -135 565 -156 1219 -59 1780 44 248 102 483 171 690
197 593 534 1161 932 1572 73 76 131 138 129 138 -2 0 -60 -57 -129 -127z"/>
<path d="M4455 9060 c3 -6 1 -10 -4 -10 -6 0 -11 -5 -11 -11 0 -8 4 -9 13 0 8
6 17 8 20 4 4 -3 7 -2 7 4 0 6 -7 14 -16 17 -8 3 -12 2 -9 -4z"/>
<path d="M4011 9024 c0 -11 3 -14 6 -6 3 7 2 16 -1 19 -3 4 -6 -2 -5 -13z"/>
<path d="M8542 9000 c0 -19 2 -27 5 -17 2 9 2 25 0 35 -3 9 -5 1 -5 -18z"/>
<path d="M5015 8979 c-12 -86 -30 -399 -24 -399 9 0 23 54 25 90 3 97 5 106
15 82 5 -15 5 -30 -1 -42 -6 -10 -10 -25 -10 -32 1 -7 12 7 25 33 32 61 108
144 162 175 90 53 153 66 350 72 l183 4 2 -703 c2 -387 3 -705 3 -706 0 -1
-37 -6 -81 -12 -96 -12 -278 -81 -370 -141 -163 -107 -294 -294 -318 -455 -5
-30 -2 -25 12 20 63 206 192 359 386 455 103 51 244 90 329 90 l38 0 -3 -332
c-4 -347 -7 -368 -50 -431 -24 -34 -87 -67 -127 -67 -16 0 -33 -4 -36 -10 -4
-7 117 -10 357 -9 333 1 376 5 266 23 -48 9 -102 68 -122 137 -13 43 -16 112
-16 363 -1 258 -3 314 -15 330 -8 11 -15 31 -15 45 l0 24 23 -21 c13 -12 30
-22 38 -21 8 0 4 4 -8 9 l-23 9 -1 388 c-1 213 -4 372 -8 353 -3 -19 -6 -65
-5 -102 0 -39 -3 -68 -9 -68 -5 0 -15 -7 -22 -17 -15 -20 -35 -9 -36 20 0 21
-1 21 -9 2 -6 -14 -9 -15 -9 -4 -1 8 4 20 11 27 9 9 9 12 -1 12 -7 0 -10 4 -7
8 2 4 1 14 -3 21 -5 7 -8 1 -9 -18 -1 -36 -8 -51 -25 -51 -8 0 -8 3 -2 8 9 6
12 14 16 40 5 27 -2 52 -13 46 -8 -5 -9 -2 -5 9 3 9 2 19 -3 22 -9 6 -13 -7
-13 -48 0 -13 -3 -15 -13 -6 -8 6 -12 14 -10 18 3 4 0 13 -5 21 -8 13 -12 12
-28 -7 l-18 -21 0 38 c0 30 3 37 16 33 14 -4 14 -3 1 6 -8 6 -18 11 -22 11 -5
0 -8 -147 -8 -327 0 -179 -2 -324 -5 -321 -3 2 -5 283 -6 624 0 340 -4 637 -7
659 l-7 40 -180 0 c-234 0 -286 -15 -435 -122 -18 -13 -22 -14 -15 -3 5 8 8
23 6 34 -2 15 2 17 22 12 31 -7 41 3 19 21 -15 13 -15 13 6 3 18 -9 29 -7 52
6 16 10 26 22 23 27 -3 6 -1 7 5 3 7 -4 17 -4 23 0 16 9 -8 23 -46 26 -16 1
87 5 230 8 l260 6 -335 2 c-232 1 -339 5 -347 13 -8 8 -13 0 -18 -32z m146 2
c-8 -5 -21 -6 -30 -3 -14 5 -14 3 -3 -11 16 -19 8 -37 -16 -36 -14 0 -13 2 3
8 18 7 18 9 -5 24 -29 18 -58 17 -71 -4 -7 -11 -9 -9 -9 9 0 21 4 22 73 22 46
0 67 -4 58 -9z m-124 -108 c-2 -16 -4 -5 -4 22 0 28 2 40 4 28 2 -13 2 -35 0
-50z m73 -46 c0 -2 -10 -12 -22 -23 l-23 -19 19 23 c18 21 26 27 26 19z m-52
-67 c-7 -10 -14 -17 -17 -15 -4 4 18 35 25 35 2 0 -1 -9 -8 -20z m775 -595
c-6 -16 -53 -47 -53 -35 0 5 6 10 13 11 9 0 9 2 -1 6 -10 4 -10 8 -2 18 13 16
50 16 43 0z m2 -49 c16 6 29 -12 20 -27 -8 -12 -45 18 -44 35 0 7 2 7 5 -1 3
-7 11 -10 19 -7z m153 -238 c0 -55 -2 -66 -8 -45 -5 15 -7 39 -4 52 2 14 0 25
-6 25 -6 0 -5 8 2 20 7 11 14 20 15 20 1 0 1 -33 1 -72z m-24 5 c3 -7 2 -13
-3 -13 -5 0 -14 6 -20 13 -8 10 -7 14 4 14 8 0 16 -6 19 -14z m-30 -21 c3 -5
-1 -9 -9 -9 -8 0 -12 4 -9 9 3 4 7 8 9 8 2 0 6 -4 9 -8z m54 -87 c-3 -3 -9 2
-12 12 -6 14 -5 15 5 6 7 -7 10 -15 7 -18z m-255 -242 c-7 -2 -19 -2 -25 0 -7
3 -2 5 12 5 14 0 19 -2 13 -5z m262 -173 c3 -5 1 -10 -4 -10 -6 0 -11 5 -11
10 0 6 2 10 4 10 3 0 8 -4 11 -10z m-265 -590 c-6 -11 -13 -20 -16 -20 -2 0 0
9 6 20 6 11 13 20 16 20 2 0 0 -9 -6 -20z m-48 -60 c-18 -17 -37 -30 -44 -30
-10 0 61 58 72 59 3 0 -10 -13 -28 -29z"/>
<path d="M5800 8159 c0 -5 5 -7 10 -4 6 3 10 8 10 11 0 2 -4 4 -10 4 -5 0 -10
-5 -10 -11z"/>
<path d="M5823 8993 c15 -2 39 -2 55 0 15 2 2 4 -28 4 -30 0 -43 -2 -27 -4z"/>
<path d="M6068 8993 c29 -2 74 -2 100 0 26 2 2 3 -53 3 -55 0 -76 -1 -47 -3z"/>
<path d="M6338 8993 c68 -2 176 -2 240 0 64 1 9 3 -123 3 -132 0 -185 -2 -117
-3z"/>
<path d="M6708 8993 c7 -3 16 -2 19 1 4 3 -2 6 -13 5 -11 0 -14 -3 -6 -6z"/>
<path d="M6026 8971 c-3 -5 88 -11 212 -14 230 -5 275 -12 372 -63 92 -48 146
-114 196 -237 33 -80 48 -82 19 -2 -8 22 -15 56 -16 75 -1 19 -3 27 -6 17 -4
-15 -12 -9 -38 30 -69 102 -170 163 -311 188 -95 16 -419 21 -428 6z"/>
<path d="M4001 8954 c0 -11 3 -14 6 -6 3 7 2 16 -1 19 -3 4 -6 -2 -5 -13z"/>
<path d="M4197 8940 c3 -11 7 -20 9 -20 2 0 4 9 4 20 0 11 -4 20 -9 20 -5 0
-7 -9 -4 -20z"/>
<path d="M4665 8910 c-4 -28 -5 -53 -2 -56 2 -3 7 19 11 47 4 28 5 53 3 56 -3
2 -8 -19 -12 -47z"/>
<path d="M4027 8924 c-10 -14 -22 -22 -28 -19 -5 4 -9 -3 -9 -15 0 -18 4 -16
31 15 18 20 30 37 28 39 -2 2 -12 -7 -22 -20z"/>
<path d="M8553 8915 c0 -22 2 -30 4 -17 2 12 2 30 0 40 -3 9 -5 -1 -4 -23z"/>
<path d="M6792 8880 c0 -19 2 -27 5 -17 2 9 2 25 0 35 -3 9 -5 1 -5 -18z"/>
<path d="M4377 8873 c3 -7 9 -10 14 -7 14 8 11 21 -5 21 -8 0 -12 -6 -9 -14z"/>
<path d="M5130 8879 c0 -5 5 -7 10 -4 6 3 10 8 10 11 0 2 -4 4 -10 4 -5 0 -10
-5 -10 -11z"/>
<path d="M8564 8695 c0 -93 2 -133 3 -88 2 45 2 122 0 170 -1 48 -3 12 -3 -82z"/>
<path d="M4520 8831 c0 -11 -8 -22 -17 -24 -14 -4 -12 -5 5 -6 17 -1 22 4 22
24 0 14 -2 25 -5 25 -3 0 -5 -9 -5 -19z"/>
<path d="M4653 8800 c0 -25 2 -35 4 -22 2 12 2 32 0 45 -2 12 -4 2 -4 -23z"/>
<path d="M3982 8800 c0 -14 2 -19 5 -12 2 6 2 18 0 25 -3 6 -5 1 -5 -13z"/>
<path d="M8110 8816 c0 -2 7 -9 15 -16 9 -7 15 -8 15 -2 0 5 -7 12 -15 16 -8
3 -15 4 -15 2z"/>
<path d="M4031 8767 c2 -1 25 -20 52 -41 26 -20 47 -33 47 -29 0 9 -85 73 -97
73 -3 0 -4 -1 -2 -3z"/>
<path d="M4181 8754 c0 -11 3 -14 6 -6 3 7 2 16 -1 19 -3 4 -6 -2 -5 -13z"/>
<path d="M4238 8763 c7 -3 16 -2 19 1 4 3 -2 6 -13 5 -11 0 -14 -3 -6 -6z"/>
<path d="M4380 8760 c0 -6 7 -24 15 -41 9 -16 13 -34 10 -39 -3 -5 1 -22 10
-37 15 -26 14 -16 -1 22 -4 9 1 17 10 21 14 5 13 10 -10 31 -15 13 -23 30 -20
38 3 8 1 15 -4 15 -6 0 -10 -5 -10 -10z"/>
<path d="M4455 8750 c-3 -6 1 -7 9 -4 18 7 21 14 7 14 -6 0 -13 -4 -16 -10z"/>
<path d="M3987 8743 c-4 -3 -7 -23 -7 -43 0 -32 4 -37 35 -49 37 -13 60 -6 86
26 10 13 6 12 -17 -5 -27 -19 -36 -20 -64 -11 -29 11 -32 14 -28 50 2 22 3 39
2 39 0 0 -4 -3 -7 -7z"/>
<path d="M7961 8723 c-10 -26 -10 -27 4 -9 8 11 15 23 15 28 0 15 -7 8 -19
-19z"/>
<path d="M8201 8744 c-1 -7 8 -22 19 -35 10 -13 19 -18 20 -11 0 6 -4 12 -8
12 -5 0 -14 10 -20 23 -6 12 -11 17 -11 11z"/>
<path d="M4507 8717 c-3 -8 -1 -20 4 -28 6 -10 9 -7 9 14 0 29 -5 35 -13 14z"/>
<path d="M4212 8701 c-11 -7 -11 -9 0 -14 9 -3 15 1 15 9 0 8 -1 14 -1 14 -1
0 -7 -4 -14 -9z"/>
<path d="M4166 8644 c-4 -9 -4 -19 -1 -22 3 -3 5 0 5 7 0 7 5 9 10 6 6 -3 10
-2 10 4 0 18 -18 21 -24 5z"/>
<path d="M4479 8647 c6 -8 7 -18 3 -22 -4 -5 -1 -5 6 -1 10 6 10 11 1 22 -6 8
-14 14 -16 14 -3 0 0 -6 6 -13z"/>
<path d="M4235 8640 c-3 -5 -1 -10 4 -10 6 0 11 5 11 10 0 6 -2 10 -4 10 -3 0
-8 -4 -11 -10z"/>
<path d="M3980 8612 c0 -6 9 -12 20 -15 11 -3 20 -3 20 -1 0 2 -9 8 -20 14
-11 6 -20 7 -20 2z"/>
<path d="M4267 8585 c5 -24 6 -24 28 -7 13 9 21 19 19 21 -2 2 -10 -2 -19 -9
-12 -10 -15 -10 -15 4 0 9 -4 16 -9 16 -4 0 -6 -11 -4 -25z"/>
<path d="M4361 8594 c0 -11 3 -14 6 -6 3 7 2 16 -1 19 -3 4 -6 -2 -5 -13z"/>
<path d="M3982 8565 c0 -16 2 -22 5 -12 2 9 2 23 0 30 -3 6 -5 -1 -5 -18z"/>
<path d="M4330 8586 c0 -2 8 -10 18 -17 15 -13 16 -12 3 4 -13 16 -21 21 -21
13z"/>
<path d="M4516 8553 c9 -52 14 -54 14 -5 0 23 -5 42 -10 42 -7 0 -8 -14 -4
-37z"/>
<path d="M4212 8555 c0 -16 2 -22 5 -12 2 9 2 23 0 30 -3 6 -5 -1 -5 -18z"/>
<path d="M8240 8530 c0 -5 5 -10 11 -10 5 0 7 5 4 10 -3 6 -8 10 -11 10 -2 0
-4 -4 -4 -10z"/>
<path d="M4302 8518 c-7 -7 -12 -19 -11 -27 0 -9 5 -5 10 9 l10 25 20 -24 c21
-26 26 -16 5 12 -16 20 -18 21 -34 5z"/>
<path d="M7218 8472 c-88 -132 -108 -209 -108 -412 0 -125 -3 -160 -16 -178
-8 -12 -11 -22 -6 -22 5 0 17 11 26 25 13 20 16 45 12 142 -8 191 14 293 89
418 40 65 42 86 3 27z"/>
<path d="M8552 8485 c0 -16 2 -22 5 -12 2 9 2 23 0 30 -3 6 -5 -1 -5 -18z"/>
<path d="M4232 8450 c14 -42 27 -46 14 -5 -6 19 -14 35 -18 35 -4 0 -2 -14 4
-30z"/>
<path d="M4290 8461 c0 -6 4 -13 10 -16 6 -3 7 1 4 9 -7 18 -14 21 -14 7z"/>
<path d="M4465 8438 c11 -6 28 -20 38 -32 l18 -21 -11 22 c-10 22 -39 43 -57
43 -4 0 1 -6 12 -12z"/>
<path d="M8542 8390 c0 -14 2 -19 5 -12 2 6 2 18 0 25 -3 6 -5 1 -5 -13z"/>
<path d="M4290 8339 c0 -11 -5 -30 -11 -42 -10 -21 -10 -21 5 -3 15 18 22 66
11 66 -3 0 -5 -9 -5 -21z"/>
<path d="M8531 8334 c0 -11 3 -14 6 -6 3 7 2 16 -1 19 -3 4 -6 -2 -5 -13z"/>
<path d="M8135 8310 c-3 -5 -1 -10 4 -10 6 0 11 5 11 10 0 6 -2 10 -4 10 -3 0
-8 -4 -11 -10z"/>
<path d="M4561 8294 c0 -11 3 -14 6 -6 3 7 2 16 -1 19 -3 4 -6 -2 -5 -13z"/>
<path d="M4021 8284 c0 -11 3 -14 6 -6 3 7 2 16 -1 19 -3 4 -6 -2 -5 -13z"/>
<path d="M4455 8279 c-4 -6 -5 -12 -2 -15 2 -3 7 2 10 11 7 17 1 20 -8 4z"/>
<path d="M5901 8266 c-8 -10 -9 -16 -1 -21 6 -4 9 -1 8 7 -2 7 3 12 10 10 8
-1 11 2 7 8 -8 13 -10 13 -24 -4z"/>
<path d="M4055 8249 c-6 -17 -9 -19 -16 -8 -7 11 -9 11 -9 -3 0 -28 16 -29 29
-1 6 14 10 28 7 30 -2 2 -7 -5 -11 -18z"/>
<path d="M4571 8260 c0 -8 4 -24 9 -35 5 -13 9 -14 9 -5 0 8 -4 24 -9 35 -5
13 -9 14 -9 5z"/>
<path d="M5796 8254 c-5 -14 -4 -15 9 -4 17 14 19 20 6 20 -5 0 -12 -7 -15
-16z"/>
<path d="M5836 8262 c-2 -4 -1 -14 4 -22 7 -11 9 -9 7 8 -1 24 -3 26 -11 14z"/>
<path d="M4301 8243 c-13 -26 -5 -53 18 -53 15 1 15 1 -1 10 -10 7 -14 18 -11
31 6 21 6 21 19 -2 7 -13 13 -19 14 -13 0 5 -6 19 -14 29 -13 18 -14 18 -25
-2z"/>
<path d="M4427 8217 l-17 -32 20 24 c17 20 26 41 18 41 -2 0 -11 -15 -21 -33z"/>
<path d="M7498 8228 c-17 -27 -29 -58 -23 -58 3 0 14 18 25 40 22 43 21 54 -2
18z"/>
<path d="M4498 8193 c7 -3 16 -2 19 1 4 3 -2 6 -13 5 -11 0 -14 -3 -6 -6z"/>
<path d="M4138 8173 c7 -3 16 -2 19 1 4 3 -2 6 -13 5 -11 0 -14 -3 -6 -6z"/>
<path d="M7261 8163 c-1 -6 -4 -20 -7 -30 -5 -17 -5 -17 6 0 6 10 9 23 6 30
-3 9 -5 9 -5 0z"/>
<path d="M8491 8144 c0 -11 3 -14 6 -6 3 7 2 16 -1 19 -3 4 -6 -2 -5 -13z"/>
<path d="M4244 8128 c1 -16 -4 -23 -16 -22 -10 1 -15 -2 -12 -7 9 -14 31 -10
38 7 9 22 7 44 -2 44 -5 0 -8 -10 -8 -22z"/>
<path d="M4061 8124 c0 -11 3 -14 6 -6 3 7 2 16 -1 19 -3 4 -6 -2 -5 -13z"/>
<path d="M4160 8106 c0 -8 4 -17 8 -20 4 -2 8 4 8 15 0 10 -4 19 -8 19 -4 0
-8 -6 -8 -14z"/>
<path d="M4429 8098 c17 -22 27 -23 35 -2 5 13 4 14 -7 6 -10 -9 -17 -8 -27 1
-12 10 -12 9 -1 -5z"/>
<path d="M7585 8100 c-16 -7 -17 -9 -3 -9 9 -1 20 4 23 9 7 11 7 11 -20 0z"/>
<path d="M8466 8064 c-4 -14 -5 -28 -3 -31 3 -2 8 8 11 23 4 14 5 28 3 31 -3
2 -8 -8 -11 -23z"/>
<path d="M4495 8059 c-4 -6 -5 -12 -2 -15 2 -3 7 2 10 11 7 17 1 20 -8 4z"/>
<path d="M4606 8013 c-15 -18 -21 -31 -13 -27 15 6 52 53 45 58 -2 2 -16 -12
-32 -31z"/>
<path d="M4400 8029 c0 -5 5 -7 10 -4 6 3 10 8 10 11 0 2 -4 4 -10 4 -5 0 -10
-5 -10 -11z"/>
<path d="M4209 8018 c7 -10 11 -27 8 -38 -3 -11 -1 -20 4 -20 16 0 10 47 -8
61 -16 13 -17 12 -4 -3z"/>
<path d="M7174 7988 c-42 -62 -50 -77 -21 -43 28 33 61 85 54 85 -2 0 -17 -19
-33 -42z"/>
<path d="M4391 7994 c0 -11 3 -14 6 -6 3 7 2 16 -1 19 -3 4 -6 -2 -5 -13z"/>
<path d="M4101 7993 c-2 -20 15 -23 35 -7 18 14 18 15 -3 5 -16 -8 -23 -8 -26
2 -4 9 -6 9 -6 0z"/>
<path d="M4282 7970 c0 -14 2 -19 5 -12 2 6 2 18 0 25 -3 6 -5 1 -5 -13z"/>
<path d="M4693 7929 c11 -22 22 -38 24 -35 5 5 -24 63 -36 70 -4 3 1 -13 12
-35z"/>
<path d="M4130 7905 c0 -5 5 -17 10 -25 5 -8 10 -10 10 -5 0 6 -5 17 -10 25
-5 8 -10 11 -10 5z"/>
<path d="M4212 7880 c0 -19 2 -27 5 -17 2 9 2 25 0 35 -3 9 -5 1 -5 -18z"/>
<path d="M4405 7890 c-3 -5 -1 -10 4 -10 6 0 11 5 11 10 0 6 -2 10 -4 10 -3 0
-8 -4 -11 -10z"/>
<path d="M4388 7837 c18 -21 32 -46 32 -55 0 -10 7 -27 15 -38 8 -12 11 -24 8
-28 -3 -3 -1 -6 5 -6 16 0 15 6 -5 36 -13 21 -14 30 -5 45 10 15 9 19 0 19 -7
0 -28 15 -47 33 l-35 32 32 -38z"/>
<path d="M8096 7854 c-5 -13 -4 -14 7 -6 8 7 18 8 22 4 5 -4 5 -1 1 6 -10 17
-23 15 -30 -4z"/>
<path d="M4327 7846 c-17 -13 -17 -14 0 -20 10 -4 14 -4 10 0 -4 4 -2 13 4 21
14 17 9 16 -14 -1z"/>
<path d="M7368 7843 c6 -2 18 -2 25 0 6 3 1 5 -13 5 -14 0 -19 -2 -12 -5z"/>
<path d="M4596 7823 c-6 -14 -5 -15 5 -6 7 7 10 15 7 18 -3 3 -9 -2 -12 -12z"/>
<path d="M4750 7820 c6 -11 13 -20 16 -20 2 0 0 9 -6 20 -6 11 -13 20 -16 20
-2 0 0 -9 6 -20z"/>
<path d="M8010 7810 c0 -5 5 -10 11 -10 5 0 7 5 4 10 -3 6 -8 10 -11 10 -2 0
-4 -4 -4 -10z"/>
<path d="M4723 7765 c-18 -8 -33 -16 -33 -19 0 -8 59 15 66 25 7 11 6 11 -33
-6z"/>
<path d="M4280 7731 c0 -13 61 -72 70 -69 5 2 -9 19 -30 39 -22 19 -40 33 -40
30z"/>
<path d="M8381 7717 c-3 -38 131 -162 204 -188 l35 -13 3 -720 2 -721 3 721 2
722 -57 28 c-54 26 -153 114 -180 159 -6 11 -12 17 -12 12z"/>
<path d="M4616 7699 c3 -6 -7 -25 -23 -42 -31 -34 -63 -81 -63 -94 0 -4 12 10
26 32 15 22 40 54 56 71 25 26 27 32 13 38 -10 3 -14 2 -9 -5z"/>
<path d="M4891 7699 c-65 -13 -130 -48 -179 -96 -47 -47 -92 -133 -91 -173 0
-16 5 -8 13 22 34 128 174 238 302 238 24 0 44 5 44 10 0 12 -27 11 -89 -1z"/>
<path d="M7830 7685 c14 -16 25 -31 25 -31 0 -1 9 8 20 19 l20 20 -20 -11
c-16 -9 -25 -6 -45 11 l-25 22 25 -30z"/>
<path d="M4422 7655 c0 -16 2 -22 5 -12 2 9 2 23 0 30 -3 6 -5 -1 -5 -18z"/>
<path d="M4029 7653 c-13 -16 -12 -17 4 -4 9 7 17 15 17 17 0 8 -8 3 -21 -13z"/>
<path d="M4280 7652 c0 -12 3 -12 18 -1 9 7 19 14 21 16 2 1 -6 1 -18 0 -11
-1 -21 -8 -21 -15z"/>
<path d="M8158 7663 c7 -3 16 -2 19 1 4 3 -2 6 -13 5 -11 0 -14 -3 -6 -6z"/>
<path d="M4226 7647 c3 -10 9 -15 12 -12 3 3 0 11 -7 18 -10 9 -11 8 -5 -6z"/>
<path d="M4675 7609 c-21 -23 -49 -67 -64 -98 l-26 -56 -1 -680 c0 -386 2
-613 6 -525 4 85 8 390 9 677 1 499 2 525 21 577 12 29 39 75 61 100 22 25 39
46 36 46 -3 0 -21 -19 -42 -41z"/>
<path d="M3950 7585 c-30 -25 -67 -47 -82 -50 -15 -4 -28 -11 -28 -16 0 -23
121 50 160 96 19 23 10 17 -50 -30z"/>
<path d="M4079 7582 l-44 -47 45 40 c25 22 47 41 49 43 2 1 2 4 0 7 -3 2 -25
-17 -50 -43z"/>
<path d="M7900 7600 c6 -11 13 -20 16 -20 2 0 0 9 -6 20 -6 11 -13 20 -16 20
-2 0 0 -9 6 -20z"/>
<path d="M4246 7573 c-6 -14 -5 -15 5 -6 7 7 10 15 7 18 -3 3 -9 -2 -12 -12z"/>
<path d="M4207 7559 c4 -13 8 -18 11 -10 2 7 -1 18 -6 23 -8 8 -9 4 -5 -13z"/>
<path d="M4406 7544 c-5 -23 -15 -38 -29 -44 -13 -5 -16 -9 -7 -9 26 -1 38 13
45 52 4 20 5 37 2 37 -3 0 -8 -16 -11 -36z"/>
<path d="M4490 7540 c6 -11 13 -20 16 -20 2 0 0 9 -6 20 -6 11 -13 20 -16 20
-2 0 0 -9 6 -20z"/>
<path d="M6094 7538 l39 -11 -29 -12 -29 -11 32 -12 c18 -6 32 -8 32 -4 -5 30
2 35 49 29 65 -9 33 8 -42 22 -73 14 -105 13 -52 -1z"/>
<path d="M3800 6795 c0 -412 3 -746 6 -743 8 8 8 1477 1 1485 -4 3 -7 -330 -7
-742z"/>
<path d="M4010 7520 c0 -5 7 -7 15 -4 8 4 15 8 15 10 0 2 -7 4 -15 4 -8 0 -15
-4 -15 -10z"/>
<path d="M8190 7513 c0 -6 8 -17 18 -24 16 -13 16 -13 2 6 -8 11 -16 22 -17
24 -2 2 -3 0 -3 -6z"/>
<path d="M6030 7501 c0 -5 21 -16 48 -26 129 -48 210 -130 287 -290 56 -117
395 -906 511 -1187 38 -92 72 -168 76 -168 8 0 30 62 24 68 -3 2 -8 -8 -12
-23 -6 -24 -12 -14 -51 81 -56 137 -282 670 -334 787 -22 48 -39 89 -39 91 0
2 -40 94 -88 203 -128 289 -179 360 -306 425 -55 28 -116 49 -116 39z"/>
<path d="M4236 7473 c-6 -14 -5 -15 5 -6 7 7 10 15 7 18 -3 3 -9 -2 -12 -12z"/>
<path d="M6301 7487 c14 -11 129 -67 129 -62 0 8 -104 65 -119 65 -8 0 -12 -1
-10 -3z"/>
<path d="M5305 7433 c-161 -93 -295 -262 -353 -443 -24 -76 -27 -100 -27 -225
0 -119 4 -151 23 -215 108 -344 419 -560 807 -561 212 0 392 63 527 183 34 30
28 28 -25 -12 -38 -28 -90 -61 -115 -74 -128 -65 -319 -96 -461 -75 -47 7 -96
12 -108 11 -13 -1 -23 2 -23 7 0 10 -56 25 -83 23 -11 -1 -15 2 -11 9 4 8 -1
9 -16 4 -12 -4 -20 -3 -17 1 3 5 -26 26 -64 46 -39 21 -67 33 -63 26 4 -6 1
-9 -7 -6 -8 3 -14 9 -14 14 -1 5 -46 54 -101 109 -87 87 -106 112 -146 195
-65 132 -83 211 -82 345 0 85 6 127 23 185 60 195 187 354 366 460 39 22 65
40 60 40 -6 0 -46 -21 -90 -47z m-128 -1194 c109 -103 112 -121 5 -23 -72 66
-129 140 -171 221 -38 76 -22 60 26 -25 35 -63 70 -106 140 -173z m165 -129
c18 -11 29 -20 23 -20 -5 0 -23 9 -40 20 -39 26 -25 26 17 0z"/>
<path d="M3922 7405 c-2 -50 27 -89 60 -82 21 4 21 4 2 6 -31 2 -52 30 -57 76
l-4 40 -1 -40z"/>
<path d="M4015 7430 c3 -5 8 -10 11 -10 2 0 4 5 4 10 0 6 -5 10 -11 10 -5 0
-7 -4 -4 -10z"/>
<path d="M8435 7429 c-4 -6 -5 -12 -2 -15 2 -3 7 2 10 11 7 17 1 20 -8 4z"/>
<path d="M4121 7414 c0 -11 3 -14 6 -6 3 7 2 16 -1 19 -3 4 -6 -2 -5 -13z"/>
<path d="M8079 7402 c5 -17 12 -36 15 -41 3 -5 -6 -14 -21 -20 l-28 -11 30 6
c39 7 40 8 25 46 -18 45 -32 59 -21 20z"/>
<path d="M4270 7405 c-10 -12 -10 -15 4 -15 9 0 16 7 16 15 0 8 -2 15 -4 15
-2 0 -9 -7 -16 -15z"/>
<path d="M4340 7409 c0 -5 5 -7 10 -4 6 3 10 8 10 11 0 2 -4 4 -10 4 -5 0 -10
-5 -10 -11z"/>
<path d="M7963 7385 c0 -22 2 -30 4 -17 2 12 2 30 0 40 -3 9 -5 -1 -4 -23z"/>
<path d="M4035 7395 c5 -11 8 -28 9 -37 0 -10 6 -18 13 -18 17 0 17 4 -8 42
-12 18 -18 24 -14 13z"/>
<path d="M6490 7368 c24 -27 45 -48 47 -48 8 0 0 9 -44 50 l-48 45 45 -47z"/>
<path d="M4348 7370 l-17 -30 27 1 c18 1 21 3 9 6 -14 4 -16 8 -7 18 7 8 10
19 8 24 -1 6 -11 -3 -20 -19z"/>
<path d="M8402 7370 c-22 -29 -22 -30 -3 -30 11 0 28 -3 38 -6 15 -5 15 -3 -2
7 -11 6 -21 13 -23 15 -2 1 1 12 8 23 16 30 7 26 -18 -9z"/>
<path d="M4466 7359 c-15 -26 -22 -29 -49 -24 l-32 5 30 -13 c29 -13 31 -13
53 20 13 19 22 36 20 38 -2 3 -12 -9 -22 -26z"/>
<path d="M4226 7353 c14 -16 28 -27 31 -25 9 5 29 -42 36 -81 4 -28 2 -37 -8
-37 -8 0 -16 -4 -19 -9 -3 -4 6 -6 20 -3 22 4 24 8 19 34 -4 17 -2 35 6 44 10
12 9 16 -10 21 -15 4 -21 12 -19 27 2 16 -2 20 -16 18 -10 -2 -25 6 -33 17 -8
12 -18 21 -23 21 -5 0 2 -12 16 -27z"/>
<path d="M8297 7343 c-3 -5 1 -14 9 -21 12 -11 14 -9 14 8 0 20 -14 27 -23 13z"/>
<path d="M8480 7334 c-17 -9 -20 -14 -9 -14 9 0 22 7 29 15 15 18 13 18 -20
-1z"/>
<path d="M4127 7324 c3 -9 9 -12 12 -7 3 4 10 11 15 16 5 4 0 7 -12 7 -15 0
-20 -4 -15 -16z"/>
<path d="M8160 7330 c0 -5 7 -7 15 -4 8 4 15 8 15 10 0 2 -7 4 -15 4 -8 0 -15
-4 -15 -10z"/>
<path d="M8326 7287 c3 -10 9 -15 12 -12 3 3 0 11 -7 18 -10 9 -11 8 -5 -6z"/>
<path d="M3924 7205 c0 -49 1 -71 3 -48 2 23 2 64 0 90 -2 26 -3 8 -3 -42z"/>
<path d="M4355 7273 c16 -13 17 -15 3 -10 -10 4 -18 2 -18 -3 0 -19 22 -21 48
-4 25 16 25 18 7 25 -11 4 -29 8 -40 8 l-20 0 20 -16z"/>
<path d="M6571 7260 c14 -31 19 -36 19 -24 0 6 -7 19 -16 30 -14 18 -14 18 -3
-6z"/>
<path d="M7963 7200 c0 -47 2 -66 4 -42 2 23 2 61 0 85 -2 23 -4 4 -4 -43z"/>
<path d="M8060 7271 c0 -6 4 -13 10 -16 6 -3 7 1 4 9 -7 18 -14 21 -14 7z"/>
<path d="M8406 7268 c5 -7 2 -9 -9 -5 -11 4 -14 2 -10 -8 4 -11 10 -12 23 -5
29 15 34 30 10 30 -14 0 -19 -4 -14 -12z"/>
<path d="M4060 7254 c0 -8 5 -12 10 -9 6 4 8 11 5 16 -9 14 -15 11 -15 -7z"/>
<path d="M4454 7243 c-28 -25 -28 -25 -2 -9 15 9 29 16 32 16 3 0 7 -19 9 -42
l4 -43 1 47 c1 26 -2 49 -6 52 -5 3 -21 -7 -38 -21z"/>
<path d="M8158 7245 c-7 -32 -5 -39 9 -34 5 2 6 18 3 34 l-6 30 -6 -30z"/>
<path d="M3940 7257 c0 -3 12 -12 26 -22 15 -9 23 -12 20 -6 -7 11 -46 35 -46
28z"/>
<path d="M8020 7225 c19 -14 40 -25 47 -25 17 0 16 -12 -2 -57 -8 -20 -14 -38
-12 -40 2 -2 13 19 25 46 l20 50 -33 11 c-18 6 -39 18 -45 26 -7 7 -17 14 -23
14 -6 0 4 -11 23 -25z"/>
<path d="M7296 7221 c51 -24 69 -62 59 -126 -7 -53 -127 -398 -259 -753 -47
-126 -51 -142 -38 -142 4 0 17 31 28 68 12 37 63 182 114 322 151 420 170 479
170 537 0 44 -5 59 -25 78 -13 14 -31 25 -39 25 -8 0 -23 2 -33 5 -10 3 0 -3
23 -14z"/>
<path d="M4120 7223 c0 -4 11 -13 25 -20 14 -6 23 -7 19 -2 -8 13 -44 31 -44
22z"/>
<path d="M7495 7199 c-38 -34 -80 -88 -73 -94 2 -3 18 15 36 40 17 24 48 53
69 64 22 11 31 20 21 21 -10 0 -33 -14 -53 -31z"/>
<path d="M4018 7201 c14 -13 20 -26 16 -38 -5 -15 -4 -15 5 -3 17 23 13 34
-17 47 l-27 13 23 -19z"/>
<path d="M4370 7190 c0 -8 7 -24 15 -34 8 -11 15 -32 15 -47 0 -22 4 -27 20
-26 23 1 28 17 5 17 -8 0 -15 7 -15 15 0 8 -9 32 -20 52 -11 21 -20 31 -20 23z"/>
<path d="M8404 7189 c-3 -6 2 -18 12 -27 17 -16 17 -16 5 0 -7 9 -10 22 -6 28
3 5 4 10 1 10 -3 0 -8 -5 -12 -11z"/>
<path d="M8196 7165 c8 -35 10 -39 17 -28 3 5 -1 19 -9 33 l-14 25 6 -30z"/>
<path d="M4230 7171 c-12 -5 -11 -10 8 -30 l22 -24 0 26 c0 29 -8 37 -30 28z"/>
<path d="M4094 7159 c-4 -7 -3 -9 4 -5 15 9 23 -7 11 -24 -8 -13 -10 -13 -20
0 -9 13 -10 12 -5 -2 3 -10 1 -18 -4 -18 -6 0 -10 -5 -10 -12 0 -9 3 -9 12 0
7 7 20 12 29 12 13 0 17 7 16 27 -2 29 -21 41 -33 22z"/>
<path d="M4336 7130 c7 -8 14 -24 17 -35 4 -19 5 -19 6 1 0 12 -7 28 -16 35
-16 12 -17 12 -7 -1z"/>
<path d="M8366 7127 c3 -10 9 -15 12 -12 3 3 0 11 -7 18 -10 9 -11 8 -5 -6z"/>
<path d="M8432 7107 c-2 -24 0 -29 9 -20 6 6 19 9 28 6 13 -4 14 -3 1 5 -8 6
-18 8 -24 5 -5 -4 -7 1 -3 10 3 9 3 18 -1 21 -4 3 -9 -10 -10 -27z"/>
<path d="M4021 7121 c-1 -8 -9 -20 -18 -27 -17 -13 -17 -13 0 -14 19 0 32 22
24 42 -4 10 -6 10 -6 -1z"/>
<path d="M4204 7098 c-18 -22 -27 -44 -10 -24 17 21 31 15 39 -19 5 -20 5 -19
6 1 0 11 -5 28 -12 38 -11 15 -15 15 -23 4z"/>
<path d="M3922 7036 l-2 -60 25 34 c14 19 25 39 25 44 -1 6 -8 -2 -18 -19
l-17 -30 -6 45 c-6 45 -6 44 -7 -14z"/>
<path d="M8041 7054 c0 -11 3 -14 6 -6 3 7 2 16 -1 19 -3 4 -6 -2 -5 -13z"/>
<path d="M4126 7045 c4 -8 8 -15 10 -15 2 0 4 7 4 15 0 8 -4 15 -10 15 -5 0
-7 -7 -4 -15z"/>
<path d="M4481 7040 c14 -31 19 -36 19 -24 0 6 -7 19 -16 30 -14 18 -14 18 -3
-6z"/>
<path d="M8470 7046 c0 -8 4 -17 9 -20 5 -4 7 3 4 14 -6 23 -13 26 -13 6z"/>
<path d="M4280 7041 c0 -8 52 -22 58 -16 2 1 -11 7 -27 13 -17 6 -31 7 -31 3z"/>
<path d="M4440 7021 c0 -6 4 -13 10 -16 6 -3 7 1 4 9 -7 18 -14 21 -14 7z"/>
<path d="M4360 7013 c8 -4 23 -16 33 -27 18 -21 18 -20 1 7 -9 15 -24 27 -33
26 -13 0 -13 -2 -1 -6z"/>
<path d="M7985 7000 c-4 -6 -11 -8 -16 -5 -5 4 -9 -4 -9 -16 0 -12 1 -20 3
-18 1 2 11 14 21 27 11 12 16 22 13 22 -3 0 -9 -5 -12 -10z"/>
<path d="M4252 6965 c-17 -37 -14 -45 4 -12 9 16 14 31 11 33 -2 2 -9 -7 -15
-21z"/>
<path d="M3967 6952 c-12 -13 -13 -22 -6 -32 9 -13 10 -13 6 0 -2 8 2 23 11
33 20 22 10 22 -11 -1z"/>
<path d="M4164 6943 c1 -19 5 -28 10 -23 6 6 5 18 -1 32 -10 21 -10 21 -9 -9z"/>
<path d="M4359 6943 c-13 -17 -13 -17 6 -3 11 8 22 16 24 17 2 2 0 3 -6 3 -6
0 -17 -8 -24 -17z"/>
<path d="M8206 6947 c3 -10 9 -15 12 -12 3 3 0 11 -7 18 -10 9 -11 8 -5 -6z"/>
<path d="M4029 6917 c26 -28 31 -32 31 -19 0 4 -13 16 -28 26 l-27 19 24 -26z"/>
<path d="M4120 6921 c0 -6 4 -13 10 -16 6 -3 7 1 4 9 -7 18 -14 21 -14 7z"/>
<path d="M8492 6911 c11 -17 10 -25 -1 -43 -14 -23 -14 -23 7 -4 22 19 18 45
-9 61 -6 4 -5 -2 3 -14z"/>
<path d="M4399 6893 c-13 -15 -17 -22 -7 -15 9 7 18 9 20 5 3 -4 3 -3 2 4 -4
15 24 25 32 11 4 -6 -5 -22 -20 -35 -36 -30 -20 -30 19 1 25 20 28 26 16 40
-19 23 -34 20 -62 -11z"/>
<path d="M8070 6906 c0 -2 8 -10 18 -17 15 -13 16 -12 3 4 -13 16 -21 21 -21
13z"/>
<path d="M4961 6854 c0 -11 3 -14 6 -6 3 7 2 16 -1 19 -3 4 -6 -2 -5 -13z"/>
<path d="M2070 6859 c0 -3 -11 -77 -25 -165 -14 -87 -24 -170 -24 -184 1 -14
5 0 10 30 5 30 18 113 30 183 11 71 18 131 15 135 -3 3 -6 3 -6 1z"/>
<path d="M4371 6844 c0 -11 3 -14 6 -6 3 7 2 16 -1 19 -3 4 -6 -2 -5 -13z"/>
<path d="M4173 6800 c0 -30 2 -43 4 -27 2 15 2 39 0 55 -2 15 -4 2 -4 -28z"/>
<path d="M7960 6831 c0 -25 6 -27 13 -6 4 8 2 17 -3 20 -6 4 -10 -3 -10 -14z"/>
<path d="M3921 6824 c0 -11 3 -14 6 -6 3 7 2 16 -1 19 -3 4 -6 -2 -5 -13z"/>
<path d="M3923 6725 c0 -44 2 -61 4 -37 2 23 2 59 0 80 -2 20 -4 1 -4 -43z"/>
<path d="M8122 6791 c-10 -6 -7 -10 12 -13 16 -3 25 -1 23 5 -5 15 -20 18 -35
8z"/>
<path d="M4058 6783 c6 -2 18 -2 25 0 6 3 1 5 -13 5 -14 0 -19 -2 -12 -5z"/>
<path d="M4257 6761 c-4 -17 -3 -21 5 -13 5 5 8 16 6 23 -3 8 -7 3 -11 -10z"/>
<path d="M3964 6753 c4 -7 0 -26 -9 -43 -8 -16 -13 -30 -11 -30 3 0 13 14 22
31 12 25 13 34 3 43 -9 8 -10 8 -5 -1z"/>
<path d="M8485 6750 c-3 -5 -1 -10 4 -10 6 0 11 5 11 10 0 6 -2 10 -4 10 -3 0
-8 -4 -11 -10z"/>
<path d="M4110 6729 c0 -6 -10 -20 -22 -30 l-23 -20 32 16 c22 10 30 20 27 30
-7 18 -14 20 -14 4z"/>
<path d="M4017 6723 c-10 -9 -9 -23 1 -23 5 0 9 7 9 15 0 17 -1 18 -10 8z"/>
<path d="M8405 6723 c11 -3 28 -12 38 -21 10 -9 17 -11 17 -4 0 14 -33 32 -57
31 -16 -1 -15 -2 2 -6z"/>
<path d="M4403 6692 c-1 -22 0 -24 9 -8 6 10 6 22 2 26 -5 5 -10 -3 -11 -18z"/>
<path d="M4490 6694 c0 -14 -4 -22 -10 -19 -6 3 -7 -1 -4 -9 11 -28 24 -17 24
19 0 19 -2 35 -5 35 -3 0 -5 -12 -5 -26z"/>
<path d="M8130 6710 c0 -5 -10 -11 -22 -13 -22 -4 -21 -4 2 -5 34 -2 58 13 36
21 -9 4 -16 2 -16 -3z"/>
<path d="M7961 6664 c0 -11 3 -14 6 -6 3 7 2 16 -1 19 -3 4 -6 -2 -5 -13z"/>
<path d="M8450 6647 c0 -2 14 -16 31 -33 18 -17 28 -22 24 -12 -6 14 -55 55
-55 45z"/>
<path d="M3965 6617 l-27 -23 22 -24 22 -25 -16 28 c-16 27 -16 27 16 47 18
11 28 20 21 20 -7 0 -24 -10 -38 -23z"/>
<path d="M4108 6633 c7 -3 16 -2 19 1 4 3 -2 6 -13 5 -11 0 -14 -3 -6 -6z"/>
<path d="M4431 6621 c21 -17 22 -21 10 -47 -13 -28 -13 -29 8 -10 11 10 18 24
14 30 -12 22 -36 46 -46 46 -5 0 1 -8 14 -19z"/>
<path d="M8009 6609 c-21 -29 -21 -32 -4 -47 17 -16 17 -16 7 3 -8 15 -6 26
10 47 10 15 17 28 14 28 -2 0 -15 -14 -27 -31z"/>
<path d="M4157 6570 c-3 -11 -3 -20 -1 -20 2 0 8 9 14 20 6 11 7 20 2 20 -6 0
-12 -9 -15 -20z"/>
<path d="M8200 6575 c-7 -9 -11 -17 -9 -20 3 -2 10 5 17 15 14 24 10 26 -8 5z"/>
<path d="M4201 6538 c-13 -20 -12 -22 1 -11 8 7 18 10 22 6 4 -4 4 0 0 10 -8
21 -6 21 -23 -5z"/>
<path d="M4402 6524 c-7 -8 -8 -14 -3 -14 10 0 25 19 20 25 -2 1 -10 -3 -17
-11z"/>
<path d="M4480 6529 c0 -5 5 -7 10 -4 6 3 10 8 10 11 0 2 -4 4 -10 4 -5 0 -10
-5 -10 -11z"/>
<path d="M7960 6513 c0 -33 13 -43 26 -21 5 7 3 8 -6 3 -9 -6 -12 -4 -8 7 4 8
2 21 -3 29 -6 10 -9 4 -9 -18z"/>
<path d="M4038 6523 c7 -3 16 -2 19 1 4 3 -2 6 -13 5 -11 0 -14 -3 -6 -6z"/>
<path d="M3922 6500 c0 -14 2 -19 5 -12 2 6 2 18 0 25 -3 6 -5 1 -5 -13z"/>
<path d="M8030 6510 c0 -5 5 -10 11 -10 5 0 7 5 4 10 -3 6 -8 10 -11 10 -2 0
-4 -4 -4 -10z"/>
<path d="M2013 6430 c0 -25 2 -35 4 -22 2 12 2 32 0 45 -2 12 -4 2 -4 -23z"/>
<path d="M4080 6466 c0 -2 7 -6 15 -10 8 -3 15 -1 15 4 0 6 -7 10 -15 10 -8 0
-15 -2 -15 -4z"/>
<path d="M4363 6463 c4 -3 1 -13 -6 -22 -11 -14 -10 -14 6 -2 20 15 22 31 5
31 -6 0 -8 -3 -5 -7z"/>
<path d="M10491 6444 c0 -11 3 -14 6 -6 3 7 2 16 -1 19 -3 4 -6 -2 -5 -13z"/>
<path d="M7156 6405 c-9 -26 -7 -32 5 -12 6 10 9 21 6 23 -2 3 -7 -2 -11 -11z"/>
<path d="M4276 6363 c-6 -14 -5 -15 5 -6 7 7 10 15 7 18 -3 3 -9 -2 -12 -12z"/>
<path d="M2003 6320 c0 -30 2 -43 4 -27 2 15 2 39 0 55 -2 15 -4 2 -4 -28z"/>
<path d="M3970 6366 c0 -2 8 -10 18 -17 15 -13 16 -12 3 4 -13 16 -21 21 -21
13z"/>
<path d="M8310 6359 c0 -5 5 -7 10 -4 6 3 10 8 10 11 0 2 -4 4 -10 4 -5 0 -10
-5 -10 -11z"/>
<path d="M10501 6344 c0 -11 3 -14 6 -6 3 7 2 16 -1 19 -3 4 -6 -2 -5 -13z"/>
<path d="M8186 6337 c3 -10 9 -15 12 -12 3 3 0 11 -7 18 -10 9 -11 8 -5 -6z"/>
<path d="M7111 6279 c-6 -18 -9 -34 -7 -36 2 -2 9 10 15 28 6 18 9 34 7 36 -2
2 -9 -10 -15 -28z"/>
<path d="M4190 6296 c0 -2 8 -10 18 -17 15 -13 16 -12 3 4 -13 16 -21 21 -21
13z"/>
<path d="M4320 6280 c0 -5 7 -7 15 -4 8 4 15 8 15 10 0 2 -7 4 -15 4 -8 0 -15
-4 -15 -10z"/>
<path d="M8387 6261 c-4 -17 -3 -21 5 -13 5 5 8 16 6 23 -3 8 -7 3 -11 -10z"/>
<path d="M4081 6244 c0 -11 3 -14 6 -6 3 7 2 16 -1 19 -3 4 -6 -2 -5 -13z"/>
<path d="M10512 6220 c0 -19 2 -27 5 -17 2 9 2 25 0 35 -3 9 -5 1 -5 -18z"/>
<path d="M1994 6120 c0 -63 1 -89 3 -57 2 31 2 83 0 115 -2 31 -3 5 -3 -58z"/>
<path d="M7022 6033 c-18 -48 -30 -88 -28 -90 2 -2 18 35 35 83 17 48 30 88
28 91 -2 2 -18 -36 -35 -84z"/>
<path d="M7960 6029 c0 -5 5 -7 10 -4 6 3 10 8 10 11 0 2 -4 4 -10 4 -5 0 -10
-5 -10 -11z"/>
<path d="M10524 5935 c0 -60 1 -84 3 -52 2 32 2 81 0 110 -2 29 -3 3 -3 -58z"/>
<path d="M4421 6003 c7 -12 15 -20 18 -17 3 2 -3 12 -13 22 -17 16 -18 16 -5
-5z"/>
<path d="M1993 5815 c0 -38 2 -53 4 -32 2 20 2 52 0 70 -2 17 -4 1 -4 -38z"/>
<path d="M2760 5702 c0 -4 -6 -57 -14 -117 -23 -176 -25 -195 -15 -195 5 0 9
8 9 18 0 38 59 139 108 184 79 74 103 81 290 86 l162 4 0 -575 c0 -359 -4
-594 -10 -624 -14 -62 -44 -100 -95 -118 -36 -13 -18 -14 210 -14 233 0 247 1
203 15 -26 8 -56 26 -67 40 -45 57 -46 78 -45 689 l2 580 130 3 c159 3 219
-14 289 -85 42 -41 103 -153 103 -188 0 -8 5 -15 10 -15 6 0 8 10 6 23 -3 12
-10 72 -16 132 -6 61 -13 122 -16 138 l-6 27 -619 0 c-340 0 -619 -4 -619 -8z"/>
<path d="M10513 5665 c0 -27 2 -38 4 -22 2 15 2 37 0 50 -2 12 -4 0 -4 -28z"/>
<path d="M6295 5568 c-34 -18 -55 -51 -55 -86 0 -45 46 -92 90 -92 43 0 90 47
90 90 0 42 -15 67 -50 85 -34 18 -48 18 -75 3z"/>
<path d="M7579 5565 c-34 -18 -53 -64 -44 -105 7 -34 54 -70 91 -70 27 0 73
36 85 67 13 34 -12 88 -50 107 -36 19 -48 19 -82 1z"/>
<path d="M10503 5545 c0 -22 2 -30 4 -17 2 12 2 30 0 40 -3 9 -5 -1 -4 -23z"/>
<path d="M10493 5445 c0 -22 2 -30 4 -17 2 12 2 30 0 40 -3 9 -5 -1 -4 -23z"/>
<path d="M10482 5360 c0 -19 2 -27 5 -17 2 9 2 25 0 35 -3 9 -5 1 -5 -18z"/>
<path d="M10472 5290 c0 -19 2 -27 5 -17 2 9 2 25 0 35 -3 9 -5 1 -5 -18z"/>
<path d="M10462 5225 c0 -16 2 -22 5 -12 2 9 2 23 0 30 -3 6 -5 -1 -5 -18z"/>
<path d="M4120 5204 c-41 -12 -95 -28 -120 -35 l-45 -12 32 -9 c59 -16 61 -27
66 -313 2 -158 9 -274 16 -297 22 -71 72 -130 135 -163 53 -27 69 -30 150 -30
114 0 177 26 260 109 l56 56 0 -48 c0 -113 101 -153 218 -86 23 14 42 30 42
36 0 9 -3 9 -12 0 -20 -20 -65 -14 -82 10 -14 19 -16 76 -16 416 l0 393 -22
-7 c-13 -4 -68 -20 -122 -36 -104 -30 -123 -38 -88 -38 11 0 34 -11 49 -24
l28 -24 3 -258 c2 -142 0 -269 -3 -282 -9 -36 -95 -123 -143 -144 -50 -23
-122 -26 -174 -9 -50 16 -113 89 -127 146 -7 27 -11 159 -11 354 0 170 -3 312
-7 314 -5 2 -42 -6 -83 -19z"/>
<path d="M5181 5191 c-112 -37 -114 -38 -82 -49 57 -20 61 -44 61 -387 0 -343
-3 -364 -62 -390 -30 -13 -20 -14 132 -14 148 0 162 1 134 13 -50 22 -54 48
-54 371 l0 292 40 46 c55 62 128 97 201 97 94 0 148 -32 192 -115 21 -38 22
-56 25 -320 4 -317 0 -348 -51 -370 -29 -13 -15 -14 138 -14 123 1 161 3 138
10 -63 18 -65 29 -70 342 -5 343 -9 367 -88 444 -67 65 -134 88 -235 81 -87
-7 -165 -42 -235 -109 l-55 -52 0 82 c0 44 -3 81 -7 80 -5 -1 -59 -18 -122
-38z"/>
<path d="M6275 5191 c-109 -35 -116 -39 -87 -46 66 -14 67 -21 67 -390 0 -361
-1 -365 -58 -390 -29 -13 -15 -14 138 -14 131 1 163 3 138 11 -62 20 -63 31
-63 472 0 218 -3 396 -7 395 -5 0 -62 -18 -128 -38z"/>
<path d="M6864 5212 c-70 -24 -99 -45 -131 -93 -31 -47 -42 -136 -24 -192 18
-53 94 -117 211 -176 213 -109 250 -144 250 -237 0 -98 -69 -157 -184 -156
-133 1 -220 68 -282 219 l-24 58 0 -127 0 -127 29 5 c18 4 55 -3 98 -17 94
-33 265 -34 333 -3 95 44 150 127 150 229 0 123 -52 181 -252 281 -73 36 -148
77 -166 91 -88 66 -78 178 20 229 15 8 55 14 89 14 110 0 183 -52 241 -175 28
-59 29 -59 24 -20 -3 22 -6 70 -6 108 l0 67 -30 0 c-17 0 -63 9 -102 20 -89
25 -176 25 -244 2z"/>
<path d="M7573 5191 c-62 -20 -113 -38 -113 -41 0 -3 10 -6 22 -7 12 -1 31
-11 42 -23 20 -20 21 -30 21 -364 l0 -344 -24 -26 c-13 -14 -33 -27 -45 -29
-11 -2 56 -5 149 -6 168 -1 170 -1 135 17 -57 28 -59 43 -59 475 -1 213 -4
387 -8 386 -5 -1 -59 -18 -120 -38z"/>
<path d="M8171 5220 c-140 -30 -248 -146 -210 -226 11 -23 22 -30 50 -32 52
-4 74 24 75 99 2 72 21 104 77 130 90 40 179 11 223 -74 21 -40 31 -192 14
-212 -20 -25 -75 -50 -204 -94 -136 -47 -191 -77 -240 -131 -75 -83 -73 -203
4 -280 97 -97 298 -75 409 45 l39 42 6 -39 c17 -105 155 -142 239 -64 30 28
39 59 10 34 -45 -38 -84 -29 -102 23 -7 20 -11 130 -11 301 0 163 -4 286 -11
313 -14 57 -66 117 -126 145 -54 25 -170 35 -242 20z m239 -515 c0 -180 -4
-198 -57 -246 -66 -62 -160 -80 -225 -42 -43 24 -78 93 -78 153 1 102 60 168
210 237 52 24 102 48 110 53 38 23 40 15 40 -155z"/>
<path d="M8875 5191 c-107 -37 -109 -38 -78 -48 57 -20 58 -27 58 -388 0 -361
-1 -365 -58 -390 -29 -13 -16 -14 133 -14 91 1 154 4 141 8 -13 3 -34 19 -45
34 -20 27 -21 42 -24 330 l-4 302 41 47 c53 59 95 86 159 98 94 17 171 -21
218 -110 17 -31 19 -65 22 -330 2 -191 0 -305 -7 -323 -6 -16 -24 -34 -43 -42
-30 -13 -20 -14 127 -14 143 0 157 1 129 13 -17 8 -35 22 -40 32 -5 11 -11
156 -14 324 -5 296 -6 306 -29 350 -30 58 -76 106 -126 133 -32 17 -58 21
-130 22 -78 0 -97 -4 -146 -28 -31 -15 -77 -50 -103 -77 -26 -28 -49 -50 -51
-50 -3 0 -5 36 -5 80 0 44 -3 80 -7 79 -5 -1 -57 -18 -118 -38z"/>
<path d="M10446 5149 c-4 -23 -5 -44 -2 -46 2 -2 7 14 11 37 4 23 5 43 2 46
-2 3 -7 -14 -11 -37z"/>
<path d="M10432 5065 c0 -16 2 -22 5 -12 2 9 2 23 0 30 -3 6 -5 -1 -5 -18z"/>
<path d="M10391 4887 c-62 -263 -174 -584 -296 -847 -129 -279 -368 -664 -569
-915 -227 -284 -574 -613 -846 -803 -131 -91 -215 -145 -243 -157 -18 -8 -47
-25 -66 -39 -19 -14 -41 -26 -48 -26 -7 0 -13 -4 -13 -9 0 -12 -357 -188 -490
-241 -201 -81 -340 -130 -456 -160 -63 -16 -120 -32 -125 -35 -5 -3 -39 -12
-76 -20 -38 -7 -120 -25 -183 -39 -63 -14 -176 -35 -250 -45 -142 -20 -134
-28 10 -11 227 28 517 96 785 184 677 224 1244 578 1735 1082 445 458 789
1011 1005 1619 71 200 176 587 163 600 -2 2 -19 -60 -37 -138z"/>
<path d="M5025 4250 c-109 -26 -165 -44 -165 -52 0 -5 -4 -6 -10 -3 -5 3 -10
2 -10 -4 0 -6 -6 -8 -12 -6 -19 7 -113 -48 -113 -65 0 -10 -10 -15 -30 -15
-21 -1 -31 -6 -33 -19 -3 -13 0 -16 10 -11 7 5 -21 -27 -62 -71 -90 -96 -97
-103 -82 -83 12 15 7 49 -6 49 -3 0 -22 -15 -41 -32 l-34 -33 20 30 c25 36
124 131 173 165 19 14 71 44 115 67 93 49 95 58 2 12 -244 -124 -413 -329
-434 -529 -9 -94 11 -155 71 -215 62 -62 115 -80 216 -73 148 11 312 138 309
240 0 18 -4 14 -15 -17 -8 -21 -23 -49 -34 -60 -11 -12 -17 -24 -14 -27 10
-10 -87 -76 -146 -99 -80 -32 -175 -32 -222 0 -64 44 -83 83 -85 180 -1 59 1
73 6 46 l6 -40 7 50 c16 125 98 265 226 387 141 134 311 214 480 225 156 10
251 -27 293 -114 53 -110 -14 -318 -211 -658 -224 -386 -251 -454 -200 -500
94 -85 515 211 846 599 119 138 296 398 281 412 -3 3 -20 -21 -38 -53 -18 -32
-55 -91 -82 -131 -39 -57 -52 -70 -59 -58 -10 19 59 129 75 119 5 -3 7 -2 4 4
-4 6 10 42 29 81 20 40 46 102 59 138 13 36 25 60 28 53 4 -13 0 9 -9 55 -6
33 -14 30 -14 -5 0 -91 -63 -234 -174 -399 -105 -155 -169 -233 -306 -374
-168 -173 -260 -249 -466 -384 -10 -7 -5 -5 13 3 51 24 53 17 3 -10 -44 -24
-79 -34 -50 -15 11 7 6 8 -17 4 -57 -11 -80 31 -48 86 l15 25 -6 -30 c-4 -19
9 -1 34 46 22 41 87 154 145 250 57 96 123 212 146 258 49 96 103 232 96 240
-7 6 -8 4 -39 -77 -16 -40 -30 -72 -32 -70 -2 2 10 38 26 79 31 77 38 131 18
127 -6 -2 -14 8 -18 22 l-7 25 -4 -25 c-2 -14 -4 14 -4 62 0 82 13 96 14 16 1
-20 5 -39 10 -42 5 -4 7 4 4 16 -4 16 -2 20 5 13 6 -5 12 -21 15 -35 2 -15 5
-7 5 20 3 89 -50 158 -158 209 -47 22 -71 26 -165 28 -60 1 -128 -2 -150 -7z
m380 -425 c-22 -60 -29 -53 -7 7 9 26 18 45 21 43 2 -3 -4 -25 -14 -50z m-985
-105 c-11 -30 -19 -47 -20 -38 0 19 30 101 36 96 1 -2 -6 -28 -16 -58z m916
-49 c-26 -50 -48 -91 -51 -91 -3 0 16 43 42 95 26 52 49 93 51 91 2 -2 -17
-45 -42 -95z m600 34 c-7 -11 -17 -19 -22 -18 -14 2 -35 -18 -32 -31 4 -15
-42 -77 -52 -71 -7 4 -21 -19 -21 -35 -1 -11 -32 -39 -43 -37 -6 1 -10 -3 -9
-9 3 -16 -250 -260 -342 -330 -108 -81 -175 -127 -181 -122 -2 3 26 25 63 50
193 128 433 364 581 571 38 52 58 73 63 65 5 -7 2 -22 -5 -33z m-516 -3 c0 -5
-7 -17 -15 -28 -14 -18 -14 -17 -4 9 12 27 19 34 19 19z m-76 -143 c-25 -46
-51 -88 -57 -94 -5 -5 6 19 25 55 20 36 43 80 53 98 9 19 18 32 21 29 2 -2
-16 -42 -42 -88z m-84 -29 c-11 -22 -23 -40 -25 -40 -3 0 4 18 15 40 11 22 23
40 25 40 3 0 -4 -18 -15 -40z m-55 -97 c-15 -27 -32 -52 -38 -58 -6 -5 2 13
18 40 15 28 30 53 32 58 2 4 7 7 10 7 2 0 -7 -21 -22 -47z m35 -53 c-6 -11
-13 -20 -16 -20 -2 0 0 9 6 20 6 11 13 20 16 20 2 0 0 -9 -6 -20z m-95 -50
c-19 -37 -19 -37 5 -43 15 -4 24 2 35 23 8 16 20 32 26 36 10 6 -8 -29 -63
-121 -19 -32 -25 -27 -8 6 8 13 7 25 -1 40 -11 21 -12 21 -31 -10 -11 -17 -22
-31 -24 -31 -5 0 7 25 43 88 28 48 41 57 18 12z m-138 -292 c-3 -8 -6 -5 -6 6
-1 11 2 17 5 13 3 -3 4 -12 1 -19z m92 -55 c2 -2 -2 -3 -10 -3 -8 0 -20 10
-28 23 l-14 22 24 -20 c13 -11 26 -21 28 -22z"/>
<path d="M5920 3715 c-7 -9 -11 -17 -9 -20 3 -2 10 5 17 15 14 24 10 26 -8 5z"/>
<path d="M7071 4228 c-42 -12 -144 -112 -225 -220 -32 -43 -62 -76 -66 -73 -5
3 -12 0 -16 -6 -5 -8 -3 -9 6 -4 8 5 11 3 8 -6 -3 -8 -11 -13 -17 -11 -7 1
-10 -2 -6 -8 10 -16 -34 -65 -60 -65 -12 -1 -31 -7 -41 -15 -11 -9 -7 2 10 25
94 128 164 210 242 285 68 65 78 76 40 50 -136 -97 -417 -475 -554 -745 -61
-122 -254 -318 -355 -360 -44 -18 -114 -13 -135 10 -16 17 -16 17 8 1 32 -21
43 -20 30 3 -5 11 -10 37 -10 58 0 22 -5 44 -10 49 -7 7 -5 17 6 30 8 10 13
14 10 7 -4 -6 -2 -14 3 -17 5 -4 12 2 15 11 3 10 3 0 0 -22 -5 -37 -3 -35 29
31 19 39 82 142 141 228 100 148 132 203 85 146 -11 -14 -18 -20 -15 -14 3 6
-5 21 -18 33 l-24 22 -45 -58 c-77 -100 -178 -262 -208 -331 -19 -44 -29 -85
-29 -119 0 -45 4 -54 31 -77 70 -59 183 -11 345 149 55 55 84 77 79 63 -34
-112 -31 -159 16 -204 29 -27 35 -29 112 -29 72 1 89 4 144 32 65 34 172 127
200 173 13 23 25 29 70 34 29 3 77 15 105 26 29 11 53 18 55 16 2 -1 -4 -19
-12 -39 -8 -20 -15 -63 -15 -96 0 -50 4 -65 26 -91 38 -44 75 -60 141 -60 69
1 139 23 218 71 71 42 258 219 374 354 l86 100 6 -80 c4 -44 10 -110 14 -146
9 -81 -12 -164 -55 -213 -24 -27 -27 -35 -15 -40 8 -3 14 -2 13 2 -1 4 12 29
30 56 41 64 47 98 36 215 -4 53 -8 124 -8 159 -1 43 -5 61 -13 58 -15 -6 64
114 91 137 l21 18 -22 -10 c-24 -12 -73 -71 -73 -89 0 -20 -213 -264 -318
-364 -165 -158 -263 -211 -383 -206 -38 1 -75 6 -82 11 -7 5 -2 5 13 1 22 -6
23 -5 11 10 -8 9 -16 14 -19 11 -9 -8 -32 16 -31 34 0 10 4 7 10 -8 5 -13 12
-22 14 -19 3 3 1 17 -5 32 -17 45 -12 103 15 167 13 34 22 66 18 72 -3 5 -1 7
5 3 15 -9 26 12 13 28 -6 7 -7 17 -3 22 4 5 -8 -7 -26 -26 l-32 -35 22 39 c30
54 120 149 175 185 26 17 42 31 36 31 -17 0 -125 -83 -161 -124 -18 -21 -49
-62 -68 -91 -27 -40 -47 -58 -83 -74 -40 -17 -161 -44 -161 -36 0 2 16 29 35
61 20 33 42 81 50 108 24 81 16 77 -14 -7 -16 -43 -34 -84 -41 -90 -10 -10
-12 -8 -6 8 6 19 5 19 -8 2 -13 -16 -14 -15 -19 10 -3 17 2 44 13 68 16 35 18
37 19 15 1 -21 3 -22 12 -10 8 12 9 8 5 -15 -5 -30 -5 -30 10 4 8 19 18 55 21
81 7 60 -23 101 -77 102 -51 1 -90 -5 -90 -14 0 -4 -4 -7 -9 -6 -17 5 -131
-85 -196 -154 -36 -38 -65 -64 -65 -59 0 12 77 148 105 186 13 17 51 48 86 69
107 65 210 145 307 240 50 49 92 94 92 98 0 5 -5 6 -12 2 -7 -4 -8 -3 -4 5 4
6 11 9 16 6 5 -3 26 19 46 49 42 64 55 143 28 171 -17 17 -16 17 -63 3z m55
-55 c-4 -27 -8 -56 -9 -65 -1 -9 -6 -14 -11 -11 -5 4 -7 -1 -3 -10 3 -9 1 -19
-5 -23 -7 -5 -8 -2 -3 6 5 9 4 11 -4 6 -6 -4 -10 -15 -9 -24 2 -9 -3 -17 -10
-17 -16 0 -43 -35 -37 -45 3 -4 -3 -14 -13 -21 -15 -12 -16 -12 -7 1 6 9 2 7
-7 -3 -10 -11 -16 -22 -13 -26 2 -4 -15 -25 -38 -47 l-42 -39 40 45 c33 38 30
36 -20 -12 -33 -31 -76 -70 -95 -86 -46 -38 -230 -164 -230 -157 0 3 16 31 35
61 35 54 48 87 20 50 -8 -11 -15 -15 -15 -9 0 12 19 28 32 28 4 0 40 45 79
100 171 238 277 345 343 345 29 0 29 0 22 -47z m-430 -371 c-18 -16 -18 -16
-6 6 6 13 14 21 18 18 3 -4 -2 -14 -12 -24z m-71 -32 c-15 -29 -11 -36 18 -31
12 2 8 -8 -18 -47 -14 -20 -25 -40 -25 -45 0 -5 -11 -23 -24 -40 -29 -39 -126
-208 -126 -220 0 -4 5 -5 10 -2 15 9 12 -11 -4 -24 -10 -9 -17 -6 -32 14 -14
19 -21 22 -32 12 -8 -6 -2 13 13 43 41 83 126 222 132 216 3 -3 -4 -18 -16
-34 -25 -36 -26 -43 -6 -36 11 5 13 2 9 -10 -11 -28 3 -17 31 25 19 30 24 44
16 52 -8 8 -11 7 -11 -3 -1 -11 -4 -10 -11 3 -9 16 -2 31 37 88 51 74 64 87
39 39z m-445 -166 c9 -21 4 -33 -31 -82 -44 -60 -68 -88 -54 -62 5 8 21 32 36
53 23 32 26 42 16 57 -11 18 -12 18 -31 2 -20 -16 -20 -16 -6 3 45 63 56 68
70 29z m647 4 c31 -39 16 -118 -43 -226 -38 -70 -43 -90 -14 -52 19 25 85 39
77 16 -3 -6 -10 -10 -16 -8 -7 1 -10 -2 -7 -7 3 -5 3 -17 0 -26 -13 -34 -102
-4 -146 49 -40 49 -6 182 61 239 35 29 72 35 88 15z m53 -8 c11 -11 20 -32 19
-47 l-1 -28 -8 25 c-7 21 -8 22 -9 5 -3 -42 -18 -47 -18 -6 0 22 -6 47 -13 56
-19 23 6 19 30 -5z m-176 -22 c-67 -81 -84 -183 -39 -237 14 -16 35 -33 45
-36 17 -5 18 -10 8 -28 -16 -32 -116 -135 -162 -168 -40 -30 -38 -42 2 -13 12
8 27 12 34 8 6 -4 8 -3 5 3 -3 5 22 36 56 69 34 32 56 52 49 44 -16 -19 -15
-29 3 -26 22 3 56 38 51 53 -3 7 -2 12 2 12 19 -3 25 2 12 11 -12 7 -10 9 7 7
21 -1 21 -2 -8 -38 -36 -45 -100 -104 -131 -119 -18 -10 -17 -7 7 15 l30 27
-35 -19 c-19 -11 -35 -25 -35 -33 0 -17 -72 -45 -141 -54 -69 -10 -95 11 -102
82 -2 29 -7 51 -9 48 -3 -3 -12 2 -20 10 -12 12 -12 21 -3 52 7 20 17 42 22
47 6 6 6 3 2 -9 -6 -16 -4 -18 9 -13 10 4 17 2 17 -5 0 -7 7 -3 15 8 14 17 14
15 0 -20 -8 -21 -15 -46 -15 -55 0 -9 11 9 23 39 29 71 71 130 144 205 53 55
173 164 181 165 2 0 -9 -15 -24 -32z m-604 -32 c0 -2 -8 -10 -17 -17 -16 -13
-17 -12 -4 4 13 16 21 21 21 13z m-59 -84 c-6 -11 -6 -24 -1 -33 8 -12 13 -12
30 -1 21 13 21 12 4 -13 -13 -20 -19 -23 -26 -13 -7 9 -8 8 -4 -5 4 -11 -4
-33 -20 -55 -24 -36 -25 -36 -18 -8 5 21 4 27 -5 22 -6 -4 -11 -1 -11 6 0 7
-10 2 -21 -12 -20 -24 -20 -24 1 18 12 26 25 40 32 36 7 -4 8 -3 4 5 -4 6 2
25 14 41 24 33 36 40 21 12z m770 -89 c-12 -20 -14 -14 -5 12 4 9 9 14 11 11
3 -2 0 -13 -6 -23z m243 -58 c-4 -8 -2 -21 3 -28 5 -6 8 -18 7 -24 -1 -7 -2
-25 -4 -40 l-2 -28 -10 30 c-10 27 -12 28 -20 10 -6 -15 -7 -13 -4 10 5 35 23
85 30 85 3 0 3 -7 0 -15z m-1145 -91 c-11 -27 -17 -37 -14 -22 7 38 25 82 30
76 3 -2 -5 -26 -16 -54z m-22 -96 c-3 -7 -5 -2 -5 12 0 14 2 19 5 13 2 -7 2
-19 0 -25z m1168 -28 l20 -25 -22 19 c-13 11 -23 24 -23 29 0 6 1 8 3 6 1 -2
11 -15 22 -29z"/>
<path d="M6492 3526 c-12 -6 -20 -16 -17 -23 2 -7 -1 -12 -8 -10 -8 1 -11 -8
-9 -26 2 -16 -1 -26 -5 -24 -5 3 -9 -3 -9 -14 0 -10 3 -15 7 -11 8 10 71 122
67 121 -2 -1 -13 -6 -26 -13z"/>
<path d="M6430 3395 c0 -5 5 -17 10 -25 5 -8 10 -10 10 -5 0 6 -5 17 -10 25
-5 8 -10 11 -10 5z"/>
<path d="M6371 3164 c0 -11 3 -14 6 -6 3 7 2 16 -1 19 -3 4 -6 -2 -5 -13z"/>
<path d="M7041 3274 c0 -11 3 -14 6 -6 3 7 2 16 -1 19 -3 4 -6 -2 -5 -13z"/>
<path d="M4588 4050 c-37 -32 -45 -45 -40 -62 5 -20 3 -21 -10 -10 -14 11 -16
10 -11 -8 5 -20 11 -16 65 37 32 32 54 59 48 61 -5 2 -8 8 -4 13 9 16 0 10
-48 -31z m42 11 c0 -5 -7 -12 -16 -15 -14 -5 -15 -4 -4 9 14 17 20 19 20 6z"/>
<path d="M6148 4055 c-3 -11 -9 -29 -13 -40 -3 -11 1 -7 10 8 9 16 15 33 12
40 -2 6 -6 3 -9 -8z"/>
<path d="M6055 3920 c-9 -18 -14 -34 -11 -37 2 -3 12 9 21 27 9 18 14 34 11
37 -2 3 -12 -9 -21 -27z"/>
<path d="M5507 3933 c-4 -3 -7 -13 -7 -22 1 -13 3 -13 11 2 11 19 8 33 -4 20z"/>
<path d="M6297 3892 c-28 -31 -40 -84 -23 -101 12 -12 20 -12 46 -1 30 13 70
54 70 73 0 5 -9 -2 -21 -17 -11 -14 -34 -33 -50 -42 -26 -13 -30 -13 -35 0 -3
9 -4 21 -1 28 3 7 6 3 6 -10 1 -22 2 -22 31 -7 17 9 35 27 40 41 13 32 12 43
0 24 -7 -11 -10 -11 -10 -2 0 7 -4 11 -9 7 -6 -3 -14 2 -18 10 -8 14 -11 14
-26 -3z m11 -22 c-7 -10 -14 -17 -17 -15 -4 4 18 35 25 35 2 0 -1 -9 -8 -20z"/>
<path d="M7981 3712 c-34 -18 -71 -72 -71 -102 0 -8 9 4 19 26 21 46 54 74 88
74 26 0 47 -32 38 -60 -4 -11 -4 -20 -1 -20 9 0 38 61 32 68 -3 3 -6 2 -6 -1
0 -4 -9 2 -20 13 -25 25 -36 25 -79 2z"/>
<path d="M3785 3587 l-60 -62 60 -58 60 -58 29 36 c16 20 45 48 65 62 20 14
28 23 17 19 -24 -8 -121 86 -112 109 7 20 9 22 -59 -48z m51 17 c-4 -11 4 -27
24 -45 16 -16 30 -31 30 -34 0 -2 -11 -15 -24 -28 l-25 -25 -27 29 -27 28 24
20 c13 11 21 22 18 26 -9 8 -68 -52 -60 -62 3 -4 0 -3 -7 3 -11 9 -5 21 30 57
47 51 53 55 44 31z"/>
<path d="M7387 3629 c-9 -6 -26 -12 -37 -14 -26 -5 -78 -41 -107 -75 -13 -14
-23 -21 -23 -16 0 5 -7 3 -15 -4 -8 -7 -12 -17 -8 -23 3 -5 2 -7 -4 -4 -6 4
-21 -5 -34 -20 -13 -14 -18 -23 -10 -18 11 6 13 3 9 -13 -4 -12 -2 -20 3 -16
15 9 10 -3 -20 -53 -36 -60 -61 -134 -60 -176 1 -31 2 -30 9 8 15 73 28 95 54
95 41 0 199 50 251 80 59 34 120 94 134 133 9 22 8 26 -2 20 -18 -11 -37 -12
-37 -2 0 5 6 25 14 44 14 33 14 36 -7 50 -24 17 -83 19 -110 4z m93 -14 c26
-31 3 -84 -68 -154 -37 -37 -78 -75 -92 -84 l-25 -18 25 12 c14 6 39 22 57 35
17 13 34 20 38 15 7 -13 -65 -54 -131 -75 -76 -25 -154 -36 -154 -22 0 21 72
121 134 185 102 106 183 146 216 106z m-225 -97 c-44 -46 -81 -85 -84 -88 -2
-3 -1 2 4 10 4 8 17 25 28 37 11 12 16 27 12 34 -5 7 -4 10 2 6 6 -4 31 14 57
38 77 74 65 51 -19 -37z m246 -7 c6 10 9 11 9 2 0 -22 -70 -92 -85 -86 -11 4
-5 16 23 48 20 24 39 39 41 33 2 -6 7 -5 12 3z"/>
<path d="M7469 3483 c-36 -43 -40 -55 -9 -26 19 18 32 35 29 38 -3 3 -12 -3
-20 -12z"/>
<path d="M8569 3589 c-48 -51 -51 -64 -6 -29 29 23 73 81 60 79 -4 -1 -29 -24
-54 -50z"/>
<path d="M7881 3594 c0 -11 3 -14 6 -6 3 7 2 16 -1 19 -3 4 -6 -2 -5 -13z"/>
<path d="M8623 3603 c4 -4 -5 -20 -20 -37 -28 -30 -28 -31 -2 -8 l27 23 25
-25 c15 -14 31 -26 38 -26 13 0 -51 78 -65 79 -5 1 -6 -2 -3 -6z"/>
<path d="M7876 3535 c-9 -26 -7 -32 5 -12 6 10 9 21 6 23 -2 3 -7 -2 -11 -11z"/>
<path d="M8773 3527 c-9 -16 29 -17 198 -9 l174 9 -183 4 c-101 2 -186 1 -189
-4z"/>
<path d="M3470 3520 c113 -4 209 -3 214 2 6 4 -86 7 -205 6 l-214 -1 205 -7z"/>
<path d="M8531 3501 c24 -17 55 -44 67 -61 l23 -31 55 58 c29 32 54 59 54 61
0 3 -11 -3 -24 -12 -16 -10 -26 -12 -28 -4 -2 6 -11 4 -22 -7 -13 -13 -14 -20
-6 -25 8 -5 8 -10 2 -14 -5 -3 -27 10 -48 29 -39 36 -54 43 -54 25 0 -7 -6 -7
-19 0 -42 22 -42 8 0 -19z m149 -5 c0 -3 -4 -8 -10 -11 -5 -3 -10 -1 -10 4 0
6 5 11 10 11 6 0 10 -2 10 -4z m-45 -45 c3 -5 1 -12 -5 -16 -5 -3 -10 1 -10 9
0 18 6 21 15 7z"/>
<path d="M7891 3495 c-1 -11 4 -38 10 -60 8 -29 8 -40 0 -43 -14 -5 -15 -79
-1 -87 6 -4 10 -3 9 2 -1 4 -1 15 1 23 1 11 4 9 10 -5 17 -40 10 48 -10 120
-10 39 -19 61 -19 50z"/>
<path d="M7936 3208 c-24 -67 -67 -109 -139 -136 -97 -37 -174 -23 -210 37
-21 36 -21 52 -1 77 14 18 15 18 4 -4 -7 -13 -9 -26 -6 -29 3 -3 9 3 12 13 4
10 14 27 22 37 11 12 11 17 3 17 -46 0 -75 -55 -57 -110 17 -53 62 -72 157
-67 117 6 197 62 229 160 19 59 7 63 -14 5z"/>
<path d="M7910 3208 c0 -19 2 -20 10 -8 13 19 13 30 0 30 -5 0 -10 -10 -10
-22z"/>
<path d="M7831 3116 c-26 -28 -17 -35 13 -13 11 8 17 19 15 26 -3 8 -13 3 -28
-13z"/>
<path d="M4172 2644 c-35 -24 -28 -60 18 -92 42 -29 52 -44 44 -66 -10 -25
-37 -28 -66 -6 -27 20 -28 20 -28 1 0 -34 69 -42 100 -11 34 34 26 65 -26 100
-28 20 -44 38 -42 48 4 21 57 29 69 10 7 -10 9 -9 9 3 0 30 -43 38 -78 13z"/>
<path d="M4431 2594 c-17 -38 -39 -86 -50 -106 l-19 -38 24 0 c15 0 23 4 19
11 -4 5 -4 21 -1 35 5 20 12 24 46 24 30 0 42 -5 50 -21 7 -11 9 -27 6 -34 -3
-10 4 -13 24 -13 27 1 28 2 15 22 -7 12 -28 57 -45 101 -18 44 -33 82 -36 84
-2 2 -17 -27 -33 -65z m45 -51 c-2 -3 -15 -3 -28 -1 -24 3 -24 4 -10 38 l14
35 14 -34 c8 -19 12 -36 10 -38z"/>
<path d="M4691 2646 c12 -13 12 -152 -1 -177 -10 -18 -7 -19 53 -19 56 0 65 3
70 20 3 11 1 20 -4 20 -5 0 -9 -4 -9 -10 0 -5 -18 -10 -40 -10 l-40 0 0 85 c0
50 4 85 10 85 6 0 10 3 10 8 0 4 -13 7 -29 7 -19 0 -26 -3 -20 -9z"/>
<path d="M5199 2567 c2 -60 -1 -92 -10 -103 -11 -13 -4 -15 57 -12 60 3 69 6
72 23 3 16 1 18 -9 8 -7 -7 -28 -13 -46 -13 -32 0 -33 1 -33 41 0 41 0 41 35
37 27 -3 35 0 35 12 0 12 -8 15 -35 12 -34 -4 -35 -4 -35 33 l0 37 40 -4 c22
-2 40 0 40 4 0 5 -12 9 -27 9 -16 1 -41 2 -58 3 l-30 1 4 -88z"/>
<path d="M5605 2553 l0 -103 43 0 c53 0 104 21 126 51 25 36 21 95 -9 124 -23
24 -36 27 -120 29 l-40 1 0 -102z m134 61 c48 -61 13 -144 -61 -144 l-38 0 0
85 0 85 39 0 c31 0 44 -6 60 -26z"/>
<path d="M5929 2567 c2 -60 -1 -92 -10 -103 -11 -13 -4 -15 57 -12 60 3 69 6
72 23 3 16 1 18 -9 8 -7 -7 -28 -13 -46 -13 -32 0 -33 1 -33 41 0 41 0 42 33
36 27 -4 33 -2 33 13 0 15 -6 17 -33 13 -32 -5 -33 -5 -33 31 0 34 2 36 34 36
19 0 37 -6 39 -12 3 -7 6 -3 6 10 1 21 -2 23 -56 20 l-58 -3 4 -88z"/>
<path d="M6339 2646 c15 -17 -2 -175 -19 -186 -11 -7 -6 -10 19 -10 28 0 31 2
22 14 -8 10 -10 34 -5 77 l7 63 37 -75 38 -74 33 74 33 75 9 -40 c5 -21 6 -56
4 -76 -5 -37 -4 -38 25 -38 26 0 29 2 18 15 -7 9 -13 50 -14 103 -1 111 -16
113 -68 9 l-36 -72 -34 72 c-24 53 -39 73 -55 76 -16 3 -20 1 -14 -7z"/>
<path d="M7335 2653 c-18 -3 -20 -10 -17 -89 2 -56 -1 -90 -8 -100 -11 -12 -6
-14 25 -14 32 0 36 2 25 15 -8 10 -11 44 -9 105 2 49 4 89 4 89 0 -1 -9 -4
-20 -6z"/>
<path d="M7545 2573 c-20 -48 -44 -95 -52 -104 -12 -15 -11 -16 11 -16 14 0
23 4 20 9 -3 5 -1 21 5 36 10 25 16 27 51 24 32 -3 41 -9 46 -27 3 -13 3 -29
-1 -34 -4 -7 7 -11 31 -11 35 0 36 1 21 18 -9 9 -32 55 -52 102 -20 46 -38 86
-39 88 -2 1 -20 -37 -41 -85z m53 -5 c11 -27 11 -28 -19 -28 -26 0 -30 3 -24
18 4 9 10 25 12 35 6 21 14 14 31 -25z"/>
<path d="M7840 2642 c-75 -37 -71 -146 7 -178 32 -14 107 -15 117 -2 2 1 6 22
9 44 4 38 3 42 -18 42 -21 0 -23 -4 -18 -35 7 -40 -8 -55 -47 -47 -63 14 -93
104 -51 155 23 28 82 30 112 3 18 -16 19 -16 19 3 0 15 -9 22 -31 27 -47 9
-61 8 -99 -12z"/>
<path d="M8140 2651 c-25 -6 -25 -8 -25 -104 l0 -97 63 0 c58 0 62 1 61 23 0
12 -3 16 -6 10 -2 -8 -22 -13 -44 -13 l-39 0 0 41 c0 41 0 41 35 37 27 -3 35
0 35 12 0 12 -8 15 -35 12 -34 -4 -35 -3 -35 32 0 34 2 36 33 36 18 0 39 -6
46 -12 10 -11 12 -9 9 6 -3 20 -51 28 -98 17z"/>
<path d="M4948 2564 c2 -57 -1 -90 -9 -100 -11 -13 -4 -15 57 -12 60 3 69 6
72 23 3 16 1 18 -9 8 -7 -7 -28 -13 -47 -13 l-33 0 3 90 c3 84 2 90 -17 90
-19 0 -20 -6 -17 -86z"/>
<path d="M6741 2573 c-18 -43 -39 -88 -46 -99 -13 -20 -12 -21 10 -21 14 0 22
4 19 9 -3 5 -3 20 0 34 5 20 12 24 46 24 34 0 42 -4 50 -26 6 -14 8 -30 4 -35
-3 -5 12 -9 33 -9 28 1 34 3 22 10 -9 5 -33 50 -54 100 -21 49 -41 90 -45 90
-4 0 -22 -35 -39 -77z m47 2 c16 -35 16 -35 -17 -35 -28 0 -29 1 -18 30 14 37
20 37 35 5z"/>
<path d="M7018 2564 c2 -56 -1 -90 -8 -100 -11 -12 -6 -14 25 -14 29 0 35 3
27 13 -5 6 -12 27 -14 45 -6 45 23 43 52 -3 22 -36 47 -55 73 -55 7 0 -6 21
-30 47 l-43 46 20 22 c22 24 26 55 8 73 -7 7 -35 12 -62 12 l-51 0 3 -86z m88
51 c9 -36 -2 -55 -30 -55 -21 0 -24 5 -28 40 -3 38 -2 40 24 40 21 0 29 -6 34
-25z"/>
<path d="M8625 2399 c-124 -93 -136 -104 -55 -50 70 47 151 111 140 110 -3 0
-41 -27 -85 -60z"/>
<path d="M6180 2253 c-44 -69 -46 -100 -17 -216 33 -128 49 -230 41 -261 -3
-14 -1 -27 7 -32 8 -5 11 -3 7 7 -3 8 0 48 8 89 16 93 16 118 0 65 l-12 -40
-12 70 c-7 39 -14 81 -17 95 -3 14 -2 19 1 12 5 -10 9 -10 22 0 13 11 14 11 7
-2 -8 -13 -7 -13 8 -1 21 17 21 13 -3 41 -11 12 -18 26 -15 29 2 4 -5 13 -17
20 -11 7 -18 9 -15 4 3 -5 2 -15 -4 -23 -19 -32 -9 81 12 121 18 36 22 39 37
27 15 -12 16 -11 4 4 -8 9 -11 22 -7 28 3 5 4 10 0 10 -3 0 -19 -21 -35 -47z"/>
<path d="M8344 2204 c-18 -14 -18 -15 4 -4 12 6 22 13 22 15 0 8 -5 6 -26 -11z"/>
<path d="M8294 2174 c-18 -14 -18 -15 4 -4 12 6 22 13 22 15 0 8 -5 6 -26 -11z"/>
<path d="M8244 2144 c-18 -14 -18 -15 4 -4 12 6 22 13 22 15 0 8 -5 6 -26 -11z"/>
<path d="M6369 2093 c-18 -21 -45 -65 -60 -98 -31 -69 -63 -174 -56 -182 3 -2
-1 -20 -9 -38 -8 -19 -14 -42 -14 -52 0 -10 11 8 24 40 13 31 32 69 42 84 35
54 110 127 174 169 80 53 100 69 100 79 0 5 -10 0 -22 -11 -13 -11 -52 -39
-88 -62 -76 -48 -125 -97 -170 -167 -26 -42 -30 -45 -24 -20 21 94 74 210 119
264 38 44 24 39 -16 -6z"/>
<path d="M5870 2101 c0 -5 38 -36 84 -70 134 -97 213 -200 230 -301 l6 -35
-20 25 c-11 14 -20 21 -20 15 0 -5 -24 14 -52 42 -110 106 -229 156 -378 157
-107 1 -177 -21 -220 -70 -16 -19 -30 -42 -30 -52 0 -11 6 -7 19 13 43 71 98
94 223 95 188 1 361 -96 467 -260 l40 -61 22 43 c12 24 54 75 93 114 110 111
237 164 387 164 86 0 133 -11 180 -43 51 -34 67 -68 50 -109 -7 -18 -13 -38
-14 -45 -1 -19 -55 -26 -88 -13 -30 13 -46 47 -35 75 3 9 2 13 -4 10 -17 -10
-11 -61 9 -79 57 -52 172 -11 171 61 -1 11 -6 7 -14 -13 -8 -18 -20 -35 -27
-39 -7 -5 -5 2 4 16 29 41 22 86 -21 129 -47 48 -102 64 -213 63 -102 0 -198
-26 -283 -78 -69 -41 -83 -44 -41 -9 17 15 23 23 15 19 -25 -13 -50 -37 -45
-45 2 -4 -15 -24 -37 -46 -40 -37 -38 -27 7 26 15 19 16 21 2 11 -23 -18 -86
-98 -68 -87 9 6 12 5 9 -5 -3 -8 -11 -13 -17 -11 -7 1 -10 -2 -7 -7 4 -5 -4
-26 -15 -46 l-22 -37 -13 32 c-8 18 -11 42 -9 54 3 11 -1 43 -9 70 -8 27 -12
54 -9 60 3 6 2 8 -2 3 -9 -8 -61 72 -57 87 4 13 -18 35 -54 52 -18 9 -44 31
-58 49 -14 18 -42 39 -61 45 -19 6 -35 18 -35 26 0 8 -9 14 -20 14 -11 0 -20
-4 -20 -9z"/>
<path d="M6261 2039 c-7 -22 -11 -43 -8 -45 2 -2 9 14 16 37 7 22 11 43 8 45
-2 2 -9 -14 -16 -37z"/>
<path d="M8098 2064 c-38 -20 -36 -28 2 -9 17 9 30 18 30 20 0 7 -1 6 -32 -11z"/>
<path d="M6241 1964 c0 -11 3 -14 6 -6 3 7 2 16 -1 19 -3 4 -6 -2 -5 -13z"/>
<path d="M7262 1973 c-7 -2 -17 -14 -23 -26 -11 -21 -10 -20 15 2 14 14 26 26
26 28 0 3 0 3 -18 -4z"/>
<path d="M5077 1964 c-13 -13 16 -46 56 -64 55 -24 130 -33 192 -21 47 8 45 9
-42 10 -105 1 -167 20 -186 58 -7 13 -16 21 -20 17z"/>
<path d="M7319 1919 c-17 -13 -57 -25 -115 -34 l-89 -14 76 4 c76 3 159 32
159 55 0 13 0 13 -31 -11z"/>
<path d="M5492 1894 c-52 -36 -69 -127 -32 -164 24 -24 62 -40 95 -40 31 0 72
19 79 36 3 9 -6 6 -24 -7 -22 -17 -37 -20 -66 -16 -90 15 -118 105 -54 172 37
38 37 44 2 19z"/>
<path d="M7063 1883 c9 -2 25 -2 35 0 9 3 1 5 -18 5 -19 0 -27 -2 -17 -5z"/>
<path d="M5612 1788 c2 -6 10 -13 16 -14 7 -1 8 0 2 3 -5 2 -8 9 -4 14 3 5 0
9 -6 9 -7 0 -10 -5 -8 -12z"/>
<path d="M5842 1769 c-24 -12 -41 -24 -38 -27 3 -2 17 3 31 12 15 10 45 21 68
26 36 7 38 8 12 9 -16 0 -49 -9 -73 -20z"/>
<path d="M6510 1781 c48 -10 85 -36 109 -77 11 -19 28 -37 37 -41 19 -7 46 7
53 28 3 9 -1 8 -13 -4 -21 -21 -37 -14 -68 33 -27 40 -80 69 -123 68 -29 0
-29 -1 5 -7z"/>
<path d="M6670 1772 c0 -12 19 -26 26 -19 2 2 -2 10 -11 17 -9 8 -15 8 -15 2z"/>
<path d="M5754 1755 c-4 -8 -12 -15 -20 -15 -16 0 -18 -33 -4 -61 13 -24 62
-25 81 -2 13 15 12 15 -8 5 -12 -7 -29 -12 -38 -12 -19 0 -42 53 -26 58 12 4
35 42 26 42 -3 0 -8 -7 -11 -15z"/>
<path d="M5906 1668 c-53 -75 38 -165 138 -137 51 14 74 40 71 78 -3 39 -15
54 -15 18 0 -14 -5 -29 -11 -32 -6 -4 -8 -13 -5 -21 8 -21 -40 -37 -94 -31
-74 8 -112 72 -74 125 8 12 13 22 10 22 -3 0 -12 -10 -20 -22z m196 -90 c-7
-7 -12 -8 -12 -2 0 14 12 26 19 19 2 -3 -1 -11 -7 -17z"/>
<path d="M5976 1675 c4 -8 11 -15 16 -15 6 0 5 6 -2 15 -7 8 -14 15 -16 15 -2
0 -1 -7 2 -15z"/>
<path d="M6447 1683 c-14 -13 -6 -23 17 -23 36 0 52 -25 38 -62 -9 -25 -9 -28
4 -18 17 15 19 61 2 78 -7 7 -20 12 -31 12 -10 0 -15 5 -12 10 7 11 -8 14 -18
3z"/>
<path d="M5935 1660 c-3 -6 1 -7 9 -4 18 7 21 14 7 14 -6 0 -13 -4 -16 -10z"/>
<path d="M6317 1653 c-19 -18 -5 -62 28 -92 48 -42 118 -44 164 -5 17 14 31
31 31 37 0 7 -5 4 -11 -6 -5 -9 -23 -24 -39 -32 -78 -40 -183 11 -166 81 7 25
4 29 -7 17z"/>
<path d="M6200 1514 c-8 -14 -28 -37 -44 -50 l-29 -25 25 -27 c14 -15 33 -39
43 -54 21 -33 31 -35 40 -8 4 12 23 37 43 57 21 21 29 34 18 30 -21 -8 -54 27
-72 75 l-10 29 -14 -27z m70 -89 c0 -1 -14 -20 -32 -41 -17 -22 -29 -32 -25
-23 5 16 -30 63 -55 72 -9 3 -4 14 17 36 l30 32 32 -37 c18 -20 33 -37 33 -39z"/>
<path d="M6205 1440 c-4 -12 1 -29 11 -42 9 -13 14 -16 11 -6 -4 11 1 18 16
22 20 5 20 6 2 26 -23 25 -32 25 -40 0z"/>
</g>
</svg>
